<svg width="249" height="286" viewBox="0 0 249 286" fill="none" xmlns="http://www.w3.org/2000/svg">
<path d="M2.22876 246.771C4.31156 248.854 7.68843 248.854 9.77123 246.771C11.854 244.688 11.854 241.312 9.77123 239.229C7.68843 237.146 4.31156 237.146 2.22877 239.229C0.14597 241.312 0.145961 244.688 2.22876 246.771ZM2.22877 46.7712C4.31156 48.854 7.68843 48.854 9.77123 46.7712C11.854 44.6884 11.854 41.3116 9.77123 39.2288C7.68843 37.146 4.31156 37.146 2.22876 39.2288C0.145961 41.3116 0.14597 44.6884 2.22877 46.7712ZM205.293 43.7071C260.131 98.5451 260.131 187.455 205.293 242.293L206.707 243.707C262.326 188.088 262.326 97.9119 206.707 42.2929L205.293 43.7071ZM205.293 242.293C150.455 297.131 61.545 297.131 6.70711 242.293L5.29289 243.707C60.9119 299.326 151.088 299.326 206.707 243.707L205.293 242.293ZM6.70711 43.7071C61.545 -11.1308 150.455 -11.1308 205.293 43.7071L206.707 42.2929C151.088 -13.3261 60.9119 -13.3261 5.29289 42.2929L6.70711 43.7071Z" fill="black"/>
</svg>
