<svg width="248" height="286" viewBox="0 0 248 286" fill="none" xmlns="http://www.w3.org/2000/svg">
<path d="M246.271 246.771C244.189 248.854 240.812 248.854 238.729 246.771C236.646 244.688 236.646 241.312 238.729 239.229C240.812 237.146 244.189 237.146 246.271 239.229C248.354 241.312 248.354 244.688 246.271 246.771ZM246.271 46.7712C244.189 48.854 240.812 48.854 238.729 46.7712C236.646 44.6884 236.646 41.3116 238.729 39.2288C240.812 37.146 244.189 37.146 246.271 39.2288C248.354 41.3116 248.354 44.6884 246.271 46.7712ZM43.2072 43.7071C-11.6307 98.5451 -11.6307 187.455 43.2072 242.293L41.793 243.707C-13.826 188.088 -13.826 97.9119 41.793 42.2929L43.2072 43.7071ZM43.2072 242.293C98.0452 297.131 186.955 297.131 241.793 242.293L243.207 243.707C187.588 299.326 97.412 299.326 41.793 243.707L43.2072 242.293ZM241.793 43.7071C186.955 -11.1308 98.0452 -11.1308 43.2072 43.7071L41.793 42.2929C97.412 -13.3261 187.588 -13.3261 243.207 42.2929L241.793 43.7071Z" fill="black"/>
</svg>
