<svg width="701" height="701" viewBox="0 0 701 701" fill="none" xmlns="http://www.w3.org/2000/svg">
<path d="M356 700.333C363.364 700.333 369.333 694.364 369.333 687C369.333 679.636 363.364 673.667 356 673.667C348.636 673.667 342.667 679.636 342.667 687C342.667 694.364 348.636 700.333 356 700.333ZM14 358.333C21.3638 358.333 27.3333 352.364 27.3333 345C27.3333 337.636 21.3638 331.667 14 331.667C6.6362 331.667 0.666668 337.636 0.666668 345C0.666668 352.364 6.6362 358.333 14 358.333ZM356 5.49998C543.501 5.49998 695.5 157.499 695.5 345H700.5C700.5 154.738 546.262 0.49998 356 0.49998V5.49998ZM695.5 345C695.5 532.501 543.501 684.5 356 684.5V689.5C546.262 689.5 700.5 535.262 700.5 345H695.5ZM16.5 345C16.5 157.499 168.499 5.49998 356 5.49998V0.49998C165.738 0.49998 11.5 154.738 11.5 345H16.5Z" fill="white"/>
</svg>
