<svg width="307" height="135" viewBox="0 0 307 135" fill="none" xmlns="http://www.w3.org/2000/svg">
<circle cx="6.13639" cy="6.13639" r="6.13639" fill="#1F4495"/>
<circle cx="42.9543" cy="6.13639" r="6.13639" fill="#1F4495"/>
<circle cx="79.7721" cy="6.13639" r="6.13639" fill="#1F4495"/>
<circle cx="6.13639" cy="36.8188" r="6.13639" fill="#1F4495"/>
<circle cx="42.9543" cy="36.8188" r="6.13639" fill="#1F4495"/>
<circle cx="79.7721" cy="36.8188" r="6.13639" fill="#1F4495"/>
<circle cx="116.592" cy="6.13639" r="6.13639" fill="#1F4495"/>
<circle cx="153.41" cy="6.13639" r="6.13639" fill="#1F4495"/>
<circle cx="190.228" cy="6.13639" r="6.13639" fill="#1F4495"/>
<circle cx="116.592" cy="36.8188" r="6.13639" fill="#1F4495"/>
<circle cx="153.41" cy="36.8188" r="6.13639" fill="#1F4495"/>
<circle cx="190.228" cy="36.8188" r="6.13639" fill="#1F4495"/>
<circle cx="6.13639" cy="67.4999" r="6.13639" fill="#1F4495"/>
<circle cx="42.9543" cy="67.4999" r="6.13639" fill="#1F4495"/>
<circle cx="79.7721" cy="67.4999" r="6.13639" fill="#1F4495"/>
<circle cx="6.13639" cy="98.1823" r="6.13639" fill="#1F4495"/>
<circle cx="42.9543" cy="98.1823" r="6.13639" fill="#1F4495"/>
<circle cx="79.7721" cy="98.1823" r="6.13639" fill="#1F4495"/>
<circle cx="116.592" cy="67.4999" r="6.13639" fill="#1F4495"/>
<circle cx="153.41" cy="67.4999" r="6.13639" fill="#1F4495"/>
<circle cx="190.228" cy="67.4999" r="6.13639" fill="#1F4495"/>
<circle cx="116.592" cy="98.1823" r="6.13639" fill="#1F4495"/>
<circle cx="153.41" cy="98.1823" r="6.13639" fill="#1F4495"/>
<circle cx="190.228" cy="98.1823" r="6.13639" fill="#1F4495"/>
<circle cx="227.046" cy="6.13639" r="6.13639" fill="#1F4495"/>
<circle cx="263.864" cy="6.13639" r="6.13639" fill="#1F4495"/>
<circle cx="300.683" cy="6.13639" r="6.13639" fill="#1F4495"/>
<circle cx="227.046" cy="36.8188" r="6.13639" fill="#1F4495"/>
<circle cx="263.864" cy="36.8188" r="6.13639" fill="#1F4495"/>
<circle cx="300.683" cy="36.8188" r="6.13639" fill="#1F4495"/>
<circle cx="227.046" cy="67.4999" r="6.13639" fill="#1F4495"/>
<circle cx="263.864" cy="67.4999" r="6.13639" fill="#1F4495"/>
<circle cx="300.683" cy="67.4999" r="6.13639" fill="#1F4495"/>
<circle cx="227.046" cy="98.1823" r="6.13639" fill="#1F4495"/>
<circle cx="263.864" cy="98.1823" r="6.13639" fill="#1F4495"/>
<circle cx="300.683" cy="98.1823" r="6.13639" fill="#1F4495"/>
<circle cx="6.13639" cy="128.863" r="6.13639" fill="#1F4495"/>
<circle cx="42.9543" cy="128.863" r="6.13639" fill="#1F4495"/>
<circle cx="79.7721" cy="128.863" r="6.13639" fill="#1F4495"/>
<circle cx="116.592" cy="128.863" r="6.13639" fill="#1F4495"/>
<circle cx="153.41" cy="128.863" r="6.13639" fill="#1F4495"/>
<circle cx="190.228" cy="128.863" r="6.13639" fill="#1F4495"/>
<circle cx="227.046" cy="128.863" r="6.13639" fill="#1F4495"/>
<circle cx="263.864" cy="128.863" r="6.13639" fill="#1F4495"/>
<circle cx="300.683" cy="128.863" r="6.13639" fill="#1F4495"/>
</svg>
