<svg width="66" height="66" viewBox="0 0 66 66" fill="none" xmlns="http://www.w3.org/2000/svg">
<path d="M2.91603 42.6171C1.65414 38.7292 3.7887 34.5439 7.67673 33.2826L53.5355 18.4057C57.4236 17.1444 61.6095 19.2792 62.8714 23.1671C64.1332 27.0549 61.9987 31.2402 58.1107 32.5015L12.2518 47.3785C8.36382 48.6398 4.17793 46.5049 2.91603 42.6171Z" fill="#98CCED"/>
<path d="M33.2874 58.1069L18.4035 12.2503C17.1416 8.36248 19.2762 4.17718 23.1642 2.91588C27.0522 1.65457 31.2381 3.78944 32.5 7.67728L47.3839 53.5338C48.6458 57.4217 46.5112 61.607 42.6232 62.8683C38.7352 64.1296 34.5493 61.9947 33.2874 58.1069Z" fill="#98CCED"/>
</svg>
