<svg width="164" height="164" viewBox="0 0 164 164" fill="none" xmlns="http://www.w3.org/2000/svg">
<path d="M30.4871 145.522C31.1627 146.073 31.8489 146.603 32.5349 147.123L147.145 32.5301C146.625 31.8442 146.095 31.1582 145.544 30.4827L30.4767 145.533L30.4871 145.522Z" fill="#98CCED"/>
<path d="M58.4796 160.238C59.4255 160.519 60.3818 160.779 61.3485 161.028L161.053 61.3392C160.803 60.383 160.543 59.4269 160.263 58.4707L58.4796 160.238Z" fill="#98CCED"/>
<path d="M38.8131 151.436C39.5719 151.903 40.3308 152.361 41.1 152.797L152.81 41.1043C152.373 40.3353 151.916 39.5766 151.448 38.8179L38.8131 151.436Z" fill="#98CCED"/>
<path d="M48.1057 156.372C48.9477 156.757 49.8 157.121 50.6523 157.474L157.498 50.6449C157.144 49.7927 156.78 48.9405 156.396 48.0986L48.1057 156.372Z" fill="#98CCED"/>
<path d="M70.1733 162.785C71.2544 162.941 72.3458 163.066 73.4268 163.18L163.215 73.4056C163.1 72.3143 162.976 71.2335 162.82 70.1526L70.1733 162.785Z" fill="#98CCED"/>
<path d="M23.949 139.65C24.2504 139.951 24.5622 140.253 24.874 140.554L140.575 24.8704C140.274 24.5586 139.983 24.2468 139.671 23.9454C139.37 23.644 139.058 23.3427 138.746 23.0413L23.0447 138.725C23.3461 139.037 23.6372 139.349 23.949 139.65Z" fill="#98CCED"/>
<path d="M83.6029 163.595C84.8814 163.564 86.1496 163.512 87.4281 163.419L163.454 87.4047C163.537 86.1263 163.599 84.8584 163.63 83.5801L83.6133 163.585L83.6029 163.595Z" fill="#98CCED"/>
<path d="M161.645 99.8037L99.8186 161.621C101.471 161.247 103.103 160.831 104.735 160.353L160.377 104.72C160.855 103.088 161.271 101.456 161.645 99.8037Z" fill="#98CCED"/>
<path d="M0.176752 76.1803C0.0935963 77.4587 0.0311835 78.7266 0 80.0049L80.017 0C78.7384 0.0311788 77.4704 0.0831892 76.1919 0.176726L0.166348 76.1907L0.176752 76.1803Z" fill="#98CCED"/>
<path d="M0.415771 90.1795C0.530111 91.2708 0.65485 92.3516 0.810768 93.4325L93.4571 0.80021C92.3761 0.644316 91.2846 0.519596 90.2036 0.405273L0.415771 90.1795Z" fill="#98CCED"/>
<path d="M123.372 152.298C129.193 148.868 134.671 144.649 139.671 139.65C144.671 134.651 148.881 129.174 152.321 123.354L123.372 152.298Z" fill="#98CCED"/>
<path d="M3.24308 58.876C2.76493 60.5077 2.34918 62.1393 1.97498 63.7918L63.8015 1.97461C62.1488 2.34876 60.5169 2.76444 58.885 3.24252L3.24308 58.876Z" fill="#98CCED"/>
<path d="M40.2475 11.2971C34.4266 14.7268 28.9488 18.9464 23.949 23.9454C18.9492 28.9444 14.7394 34.4215 11.2988 40.2415L40.2475 11.2971Z" fill="#98CCED"/>
<path d="M10.7999 122.491C11.2365 123.26 11.6938 124.019 12.1615 124.778L124.797 12.1598C124.038 11.6921 123.279 11.2348 122.51 10.7983L10.7999 122.491Z" fill="#98CCED"/>
<path d="M16.4753 131.066C16.9951 131.752 17.5252 132.437 18.0761 133.113L133.143 18.0631C132.468 17.5123 131.782 16.9823 131.096 16.4626L16.4857 131.055L16.4753 131.066Z" fill="#98CCED"/>
<path d="M2.56738 102.256C2.81685 103.212 3.07672 104.169 3.35738 105.125L105.141 3.35701C104.195 3.0764 103.238 2.81657 102.272 2.56714L2.56738 102.256Z" fill="#98CCED"/>
<path d="M6.12231 112.94C6.47573 113.793 6.83947 114.645 7.22407 115.487L115.514 7.21298C114.672 6.82844 113.82 6.46469 112.967 6.11133L6.12231 112.94Z" fill="#98CCED"/>
</svg>
