<svg width="79" height="164" viewBox="0 0 79 164" fill="none" xmlns="http://www.w3.org/2000/svg">
<path d="M48.1434 18.0731C47.4678 17.5223 46.7816 16.9923 46.0956 16.4726L-68.5142 131.065C-67.9945 131.751 -67.4645 132.437 -66.9136 133.113L48.1538 18.0627L48.1434 18.0731Z" fill="#98CCED"/>
<path d="M20.1509 3.3569C19.205 3.07629 18.2487 2.81645 17.282 2.56702L-82.4221 102.256C-82.1727 103.212 -81.9128 104.168 -81.6321 105.125L20.1509 3.3569Z" fill="#98CCED"/>
<path d="M39.8174 12.1594C39.0586 11.6917 38.2997 11.2344 37.5305 10.7979L-74.1793 122.491C-73.7428 123.26 -73.2853 124.019 -72.8176 124.777L39.8174 12.1594Z" fill="#98CCED"/>
<path d="M30.5244 7.22295C29.6825 6.83841 28.8302 6.47466 27.9778 6.1213L-78.8675 112.95C-78.5141 113.803 -78.1502 114.655 -77.7656 115.497L30.5244 7.22295Z" fill="#98CCED"/>
<path d="M8.45703 0.810326C7.376 0.654434 6.28457 0.529709 5.20354 0.41539L-84.5843 90.1896C-84.47 91.2809 -84.3452 92.3618 -84.1893 93.4426L8.45703 0.810326Z" fill="#98CCED"/>
<path d="M54.6811 23.9453C54.3797 23.6439 54.068 23.3425 53.7561 23.0411L-61.9453 138.725C-61.6439 139.037 -61.3528 139.348 -61.041 139.65C-60.7395 139.951 -60.4277 140.253 -60.1159 140.554L55.5854 24.8702C55.284 24.5584 54.993 24.2467 54.6811 23.9453Z" fill="#98CCED"/>
<path d="M78.4536 87.4149C78.5368 86.1366 78.5992 84.8686 78.6304 83.5903L-1.38659 163.595C-0.10807 163.564 1.16 163.512 2.43851 163.418L78.464 87.4045L78.4536 87.4149Z" fill="#98CCED"/>
<path d="M78.2148 73.4158C78.1005 72.3245 77.9758 71.2436 77.8198 70.1628L-14.8265 162.795C-13.7455 162.951 -12.654 163.076 -11.573 163.19L78.2148 73.4158Z" fill="#98CCED"/>
<path d="M75.3872 104.719C75.8653 103.087 76.2811 101.456 76.6553 99.8033L14.8287 161.621C16.4814 161.246 18.1134 160.831 19.7453 160.353L75.3872 104.719Z" fill="#98CCED"/>
<path d="M38.3828 152.298C44.2038 148.868 49.6816 144.649 54.6814 139.65C59.6811 134.651 63.891 129.174 67.3315 123.354L38.3828 152.298Z" fill="#98CCED"/>
<path d="M67.8306 41.1039C67.394 40.3348 66.9367 39.5762 66.469 38.8175L-46.166 151.435C-45.4072 151.903 -44.6485 152.36 -43.8793 152.797L67.8306 41.1039Z" fill="#98CCED"/>
<path d="M62.1553 32.5296C61.6355 31.8437 61.1054 31.1578 60.5545 30.4822L-54.5128 145.532C-53.8371 146.083 -53.1511 146.613 -52.4651 147.133L62.1449 32.54L62.1553 32.5296Z" fill="#98CCED"/>
<path d="M76.063 61.3389C75.8135 60.3828 75.5536 59.4266 75.273 58.4705L-26.5102 160.238C-25.5643 160.519 -24.608 160.779 -23.6413 161.028L76.063 61.3389Z" fill="#98CCED"/>
<path d="M72.5083 50.6548C72.1549 49.8026 71.7911 48.9504 71.4065 48.1086L-36.8836 156.382C-36.0416 156.767 -35.1892 157.131 -34.3369 157.484L72.5083 50.6548Z" fill="#98CCED"/>
</svg>
