<svg width="226" height="451" viewBox="0 0 226 451" fill="none" xmlns="http://www.w3.org/2000/svg">
<path d="M375.288 322.815C374.257 324.416 373.19 325.98 372.117 327.523L56.6319 167.041C57.2475 165.265 57.8844 163.482 58.5717 161.707L375.316 322.83L375.288 322.815Z" fill="#98CCED"/>
<path d="M327.106 372.302C325.331 373.525 323.521 374.711 321.682 375.882L47.2278 236.272C47.0994 234.118 46.9926 231.956 46.929 229.781L327.106 372.302Z" fill="#98CCED"/>
<path d="M361.996 340.725C360.736 342.209 359.469 343.672 358.167 345.099L50.6648 188.677C51.0514 186.785 51.4883 184.9 51.9468 183.008L361.996 340.725Z" fill="#98CCED"/>
<path d="M346.035 357.26C344.547 358.628 343.023 359.959 341.491 361.269L47.3797 211.66C47.5375 209.651 47.7169 207.635 47.9464 205.627L346.035 357.26Z" fill="#98CCED"/>
<path d="M304.544 385.497C302.404 386.552 300.222 387.549 298.054 388.517L50.8963 262.792C50.3959 260.449 49.9242 258.12 49.5172 255.77L304.544 385.497Z" fill="#98CCED"/>
<path d="M384.895 306.2C384.473 307.03 384.029 307.866 383.585 308.703L65.0956 146.693C65.5108 145.841 65.9044 144.997 66.3482 144.16C66.7704 143.331 67.2143 142.494 67.6581 141.657L386.148 303.668C385.732 304.519 385.339 305.363 384.895 306.2Z" fill="#98CCED"/>
<path d="M277.203 396.261C274.527 397.061 271.859 397.81 269.14 398.48L59.8658 292.026C58.8288 289.427 57.8419 286.837 56.9128 284.203L277.175 396.246L277.203 396.261Z" fill="#98CCED"/>
<path d="M72.0047 316.552L242.194 403.124C238.509 403.464 234.839 403.705 231.127 403.815L77.9618 325.903C75.8656 322.838 73.8991 319.73 72.0047 316.552Z" fill="#98CCED"/>
<path d="M391.349 158.321C392.386 160.92 393.373 163.511 394.302 166.144L174.04 54.1006C176.716 53.301 179.385 52.5516 182.103 51.8814L391.378 158.336L391.349 158.321Z" fill="#98CCED"/>
<path d="M400.318 187.555C400.818 189.898 401.29 192.227 401.697 194.577L146.67 64.8493C148.81 63.7947 150.992 62.7977 153.16 61.8294L400.318 187.555Z" fill="#98CCED"/>
<path d="M186.977 399.688C172.57 396.502 158.342 391.443 144.579 384.442C130.816 377.441 118.37 368.913 107.29 359.153L186.977 399.688Z" fill="#98CCED"/>
<path d="M373.282 124.459C375.378 127.524 377.345 130.632 379.239 133.81L209.05 47.2379C212.735 46.8974 216.405 46.6573 220.117 46.5467L373.282 124.459Z" fill="#98CCED"/>
<path d="M400.6 261.677C400.214 263.569 399.777 265.454 399.319 267.346L89.2696 109.629C90.5292 108.145 91.7957 106.682 93.0979 105.255L400.6 261.677Z" fill="#98CCED"/>
<path d="M394.611 283.32C393.996 285.096 393.358 286.878 392.671 288.654L75.9269 127.531C76.9576 125.93 78.0238 124.366 79.0972 122.823L394.583 283.305L394.611 283.32Z" fill="#98CCED"/>
<path d="M404.015 214.089C404.143 216.243 404.25 218.404 404.314 220.58L124.137 78.0584C125.911 76.8361 127.722 75.65 129.56 74.4784L404.015 214.089Z" fill="#98CCED"/>
<path d="M403.856 238.68C403.698 240.689 403.519 242.704 403.29 244.713L105.201 93.0798C106.689 91.712 108.214 90.3802 109.745 89.0701L403.856 238.68Z" fill="#98CCED"/>
</svg>
