<svg width="196" height="135" viewBox="0 0 196 135" fill="none" xmlns="http://www.w3.org/2000/svg">
<circle cx="6.13639" cy="6.13639" r="6.13639" transform="matrix(-1 0 0 1 196.363 0)" fill="#1F4495"/>
<circle cx="6.13639" cy="6.13639" r="6.13639" transform="matrix(-1 0 0 1 159.545 0)" fill="#1F4495"/>
<circle cx="6.13639" cy="6.13639" r="6.13639" transform="matrix(-1 0 0 1 122.728 0)" fill="#1F4495"/>
<circle cx="6.13639" cy="6.13639" r="6.13639" transform="matrix(-1 0 0 1 196.363 30.6824)" fill="#1F4495"/>
<circle cx="6.13639" cy="6.13639" r="6.13639" transform="matrix(-1 0 0 1 159.545 30.6824)" fill="#1F4495"/>
<circle cx="6.13639" cy="6.13639" r="6.13639" transform="matrix(-1 0 0 1 122.728 30.6824)" fill="#1F4495"/>
<circle cx="6.13639" cy="6.13639" r="6.13639" transform="matrix(-1 0 0 1 196.363 61.3635)" fill="#1F4495"/>
<circle cx="6.13639" cy="6.13639" r="6.13639" transform="matrix(-1 0 0 1 159.545 61.3635)" fill="#1F4495"/>
<circle cx="6.13639" cy="6.13639" r="6.13639" transform="matrix(-1 0 0 1 122.728 61.3635)" fill="#1F4495"/>
<circle cx="6.13639" cy="6.13639" r="6.13639" transform="matrix(-1 0 0 1 196.363 92.0459)" fill="#1F4495"/>
<circle cx="6.13639" cy="6.13639" r="6.13639" transform="matrix(-1 0 0 1 159.545 92.0459)" fill="#1F4495"/>
<circle cx="6.13639" cy="6.13639" r="6.13639" transform="matrix(-1 0 0 1 122.728 92.0459)" fill="#1F4495"/>
<circle cx="6.13639" cy="6.13639" r="6.13639" transform="matrix(-1 0 0 1 85.9092 0)" fill="#1F4495"/>
<circle cx="6.13639" cy="6.13639" r="6.13639" transform="matrix(-1 0 0 1 49.0918 0)" fill="#1F4495"/>
<circle cx="6.13639" cy="6.13639" r="6.13639" transform="matrix(-1 0 0 1 12.2725 0)" fill="#1F4495"/>
<circle cx="6.13639" cy="6.13639" r="6.13639" transform="matrix(-1 0 0 1 85.9092 30.6824)" fill="#1F4495"/>
<circle cx="6.13639" cy="6.13639" r="6.13639" transform="matrix(-1 0 0 1 49.0918 30.6824)" fill="#1F4495"/>
<circle cx="6.13639" cy="6.13639" r="6.13639" transform="matrix(-1 0 0 1 12.2725 30.6824)" fill="#1F4495"/>
<circle cx="6.13639" cy="6.13639" r="6.13639" transform="matrix(-1 0 0 1 85.9092 61.3635)" fill="#1F4495"/>
<circle cx="6.13639" cy="6.13639" r="6.13639" transform="matrix(-1 0 0 1 49.0918 61.3635)" fill="#1F4495"/>
<circle cx="6.13639" cy="6.13639" r="6.13639" transform="matrix(-1 0 0 1 12.2725 61.3635)" fill="#1F4495"/>
<circle cx="6.13639" cy="6.13639" r="6.13639" transform="matrix(-1 0 0 1 85.9092 92.0459)" fill="#1F4495"/>
<circle cx="6.13639" cy="6.13639" r="6.13639" transform="matrix(-1 0 0 1 49.0918 92.0459)" fill="#1F4495"/>
<circle cx="6.13639" cy="6.13639" r="6.13639" transform="matrix(-1 0 0 1 12.2725 92.0459)" fill="#1F4495"/>
<circle cx="6.13639" cy="6.13639" r="6.13639" transform="matrix(-1 0 0 1 196.363 122.727)" fill="#1F4495"/>
<circle cx="6.13639" cy="6.13639" r="6.13639" transform="matrix(-1 0 0 1 159.545 122.727)" fill="#1F4495"/>
<circle cx="6.13639" cy="6.13639" r="6.13639" transform="matrix(-1 0 0 1 122.728 122.727)" fill="#1F4495"/>
<circle cx="6.13639" cy="6.13639" r="6.13639" transform="matrix(-1 0 0 1 85.9092 122.727)" fill="#1F4495"/>
<circle cx="6.13639" cy="6.13639" r="6.13639" transform="matrix(-1 0 0 1 49.0918 122.727)" fill="#1F4495"/>
<circle cx="6.13639" cy="6.13639" r="6.13639" transform="matrix(-1 0 0 1 12.2725 122.727)" fill="#1F4495"/>
</svg>
