<svg width="332" height="146" viewBox="0 0 332 146" fill="none" xmlns="http://www.w3.org/2000/svg">
<circle cx="7.10231" cy="6.62636" r="6.62636" fill="white"/>
<circle cx="46.8604" cy="6.62636" r="6.62636" fill="white"/>
<circle cx="86.6186" cy="6.62636" r="6.62636" fill="white"/>
<circle cx="7.10231" cy="39.7582" r="6.62636" fill="white"/>
<circle cx="46.8604" cy="39.7582" r="6.62636" fill="white"/>
<circle cx="86.6186" cy="39.7582" r="6.62636" fill="white"/>
<circle cx="126.377" cy="6.62636" r="6.62636" fill="white"/>
<circle cx="166.135" cy="6.62636" r="6.62636" fill="white"/>
<circle cx="205.893" cy="6.62636" r="6.62636" fill="white"/>
<circle cx="126.377" cy="39.7582" r="6.62636" fill="white"/>
<circle cx="166.135" cy="39.7582" r="6.62636" fill="white"/>
<circle cx="205.893" cy="39.7582" r="6.62636" fill="white"/>
<circle cx="7.10231" cy="72.89" r="6.62636" fill="white"/>
<circle cx="46.8604" cy="72.89" r="6.62636" fill="white"/>
<circle cx="86.6186" cy="72.89" r="6.62636" fill="white"/>
<circle cx="7.10231" cy="106.022" r="6.62636" fill="white"/>
<circle cx="46.8604" cy="106.022" r="6.62636" fill="white"/>
<circle cx="86.6186" cy="106.022" r="6.62636" fill="white"/>
<circle cx="126.377" cy="72.89" r="6.62636" fill="white"/>
<circle cx="166.135" cy="72.89" r="6.62636" fill="white"/>
<circle cx="205.893" cy="72.89" r="6.62636" fill="white"/>
<circle cx="126.377" cy="106.022" r="6.62636" fill="white"/>
<circle cx="166.135" cy="106.022" r="6.62636" fill="white"/>
<circle cx="205.893" cy="106.022" r="6.62636" fill="white"/>
<circle cx="245.651" cy="6.62636" r="6.62636" fill="white"/>
<circle cx="285.409" cy="6.62636" r="6.62636" fill="white"/>
<circle cx="325.167" cy="6.62636" r="6.62636" fill="white"/>
<circle cx="245.651" cy="39.7582" r="6.62636" fill="white"/>
<circle cx="285.409" cy="39.7582" r="6.62636" fill="white"/>
<circle cx="325.167" cy="39.7582" r="6.62636" fill="white"/>
<circle cx="245.651" cy="72.89" r="6.62636" fill="white"/>
<circle cx="285.409" cy="72.89" r="6.62636" fill="white"/>
<circle cx="325.167" cy="72.89" r="6.62636" fill="white"/>
<circle cx="245.651" cy="106.022" r="6.62636" fill="white"/>
<circle cx="285.409" cy="106.022" r="6.62636" fill="white"/>
<circle cx="325.167" cy="106.022" r="6.62636" fill="white"/>
<circle cx="7.10231" cy="139.153" r="6.62636" fill="white"/>
<circle cx="46.8604" cy="139.153" r="6.62636" fill="white"/>
<circle cx="86.6186" cy="139.153" r="6.62636" fill="white"/>
<circle cx="126.377" cy="139.153" r="6.62636" fill="white"/>
<circle cx="166.135" cy="139.153" r="6.62636" fill="white"/>
<circle cx="205.893" cy="139.153" r="6.62636" fill="white"/>
<circle cx="245.651" cy="139.153" r="6.62636" fill="white"/>
<circle cx="285.409" cy="139.153" r="6.62636" fill="white"/>
<circle cx="325.167" cy="139.153" r="6.62636" fill="white"/>
</svg>
