<svg width="68" height="164" viewBox="0 0 68 164" fill="none" xmlns="http://www.w3.org/2000/svg">
<path d="M37.1434 18.0731C36.4678 17.5222 35.7816 16.9922 35.0956 16.4726L-79.5142 131.065C-78.9945 131.751 -78.4645 132.437 -77.9136 133.113L37.1538 18.0627L37.1434 18.0731Z" fill="#1F4495"/>
<path d="M9.15088 3.35683C8.20498 3.07623 7.24867 2.81639 6.28198 2.56696L-93.4221 102.256C-93.1727 103.212 -92.9128 104.168 -92.6321 105.125L9.15088 3.35683Z" fill="#1F4495"/>
<path d="M28.8174 12.1594C28.0586 11.6917 27.2997 11.2345 26.5305 10.798L-85.1793 122.491C-84.7428 123.26 -84.2853 124.019 -83.8176 124.777L28.8174 12.1594Z" fill="#1F4495"/>
<path d="M19.5244 7.22292C18.6825 6.83838 17.8302 6.47462 16.9778 6.12127L-89.8675 112.95C-89.5141 113.803 -89.1502 114.655 -88.7656 115.497L19.5244 7.22292Z" fill="#1F4495"/>
<path d="M43.6811 23.9452C43.3797 23.6438 43.068 23.3424 42.7561 23.041L-72.9453 138.725C-72.6439 139.037 -72.3528 139.348 -72.041 139.65C-71.7395 139.951 -71.4277 140.253 -71.1159 140.554L44.5854 24.8701C44.284 24.5583 43.993 24.2466 43.6811 23.9452Z" fill="#1F4495"/>
<path d="M67.4536 87.4149C67.5368 86.1366 67.5992 84.8686 67.6304 83.5903L-12.3866 163.595C-11.1081 163.564 -9.84 163.512 -8.56149 163.418L67.464 87.4045L67.4536 87.4149Z" fill="#1F4495"/>
<path d="M67.2148 73.4157C67.1005 72.3244 66.9758 71.2436 66.8198 70.1627L-25.8265 162.795C-24.7455 162.951 -23.654 163.076 -22.573 163.19L67.2148 73.4157Z" fill="#1F4495"/>
<path d="M64.3872 104.719C64.8653 103.088 65.2811 101.456 65.6553 99.8034L3.8287 161.621C5.48143 161.246 7.11335 160.831 8.74529 160.353L64.3872 104.719Z" fill="#1F4495"/>
<path d="M27.3828 152.298C33.2038 148.868 38.6816 144.649 43.6814 139.65C48.6811 134.651 52.891 129.174 56.3315 123.354L27.3828 152.298Z" fill="#1F4495"/>
<path d="M56.8306 41.1039C56.394 40.3348 55.9367 39.5762 55.469 38.8175L-57.166 151.435C-56.4072 151.903 -55.6485 152.36 -54.8793 152.797L56.8306 41.1039Z" fill="#1F4495"/>
<path d="M51.1553 32.5296C50.6355 31.8436 50.1054 31.1577 49.5545 30.4822L-65.5128 145.532C-64.8371 146.083 -64.1511 146.613 -63.4651 147.133L51.1449 32.54L51.1553 32.5296Z" fill="#1F4495"/>
<path d="M65.063 61.339C64.8135 60.3828 64.5536 59.4267 64.273 58.4705L-37.5102 160.238C-36.5643 160.519 -35.608 160.779 -34.6413 161.028L65.063 61.339Z" fill="#1F4495"/>
<path d="M61.5083 50.6548C61.1549 49.8026 60.7911 48.9504 60.4065 48.1086L-47.8836 156.382C-47.0416 156.767 -46.1892 157.131 -45.3369 157.484L61.5083 50.6548Z" fill="#1F4495"/>
</svg>
