<svg width="513" height="513" viewBox="0 0 513 513" fill="none" xmlns="http://www.w3.org/2000/svg">
<path d="M440.036 273.495C440.234 271.535 440.379 269.582 440.505 267.642L81.8423 194.189C81.1959 196.023 80.5624 197.876 79.9745 199.755L440.069 273.501L440.036 273.495Z" fill="#98CCED"/>
<path d="M432.942 202.409C432.294 200.276 431.594 198.15 430.861 196.017L118.845 132.118C117.353 133.778 115.874 135.458 114.42 137.177L432.942 202.409Z" fill="#98CCED"/>
<path d="M440.823 250.439C440.76 248.426 440.678 246.427 440.544 244.433L90.9566 172.839C90.05 174.619 89.189 176.426 88.3408 178.252L440.823 250.439Z" fill="#98CCED"/>
<path d="M438.565 226.777C438.242 224.711 437.867 222.652 437.472 220.605L103.108 152.128C101.942 153.855 100.788 155.602 99.6794 157.374L438.565 226.777Z" fill="#98CCED"/>
<path d="M423.19 177.194C422.139 174.962 421.016 172.75 419.886 170.569L138.902 113.025C136.987 114.598 135.105 116.179 133.261 117.818L423.19 177.194Z" fill="#98CCED"/>
<path d="M437.102 293.128C437.295 292.185 437.476 291.222 437.656 290.259L75.5773 216.107C75.3647 217.063 75.1392 218 74.9591 218.963C74.7661 219.906 74.586 220.869 74.4058 221.832L436.484 295.984C436.697 295.028 436.922 294.091 437.102 293.128Z" fill="#98CCED"/>
<path d="M408.005 150.868C406.355 148.497 404.679 146.171 402.912 143.877L164.996 95.1525C162.482 96.5866 160.014 98.0469 157.566 99.579L407.973 150.862L408.005 150.868Z" fill="#98CCED"/>
<path d="M190.621 83.1313L384.103 122.756C381.34 120.106 378.526 117.546 375.594 115.065L201.467 79.4041C197.796 80.5334 194.202 81.7802 190.621 83.1313Z" fill="#98CCED"/>
<path d="M347.034 416.932C349.547 415.498 352.015 414.038 354.464 412.505L104.057 361.223C105.707 363.594 107.383 365.92 109.15 368.214L347.066 416.939L347.034 416.932Z" fill="#98CCED"/>
<path d="M373.128 399.059C375.042 397.486 376.925 395.905 378.769 394.266L88.8391 334.89C89.8906 337.122 91.0137 339.335 92.1436 341.515L373.128 399.059Z" fill="#98CCED"/>
<path d="M337.214 89.9539C323.505 83.2485 308.733 78.1727 293.086 74.9683C277.44 71.764 261.875 70.6438 246.621 71.4007L337.214 89.9539Z" fill="#98CCED"/>
<path d="M310.595 432.686C314.267 431.557 317.86 430.31 321.441 428.959L127.96 389.335C130.722 391.985 133.536 394.544 136.469 397.026L310.595 432.686Z" fill="#98CCED"/>
<path d="M174.847 422.137C188.557 428.843 203.329 433.918 218.976 437.122C234.622 440.327 250.186 441.447 265.44 440.69L174.847 422.137Z" fill="#98CCED"/>
<path d="M421.119 339.271C422.025 337.491 422.887 335.685 423.735 333.859L71.2525 261.671C71.3152 263.684 71.3973 265.684 71.5317 267.677L421.119 339.271Z" fill="#98CCED"/>
<path d="M430.22 317.901C430.867 316.068 431.5 314.214 432.088 312.335L71.9938 238.589C71.7962 240.548 71.6508 242.501 71.5249 244.441L430.188 317.894L430.22 317.901Z" fill="#98CCED"/>
<path d="M393.217 379.974C394.709 378.313 396.188 376.633 397.642 374.914L79.1193 309.682C79.7674 311.814 80.4677 313.941 81.2005 316.073L393.217 379.974Z" fill="#98CCED"/>
<path d="M408.935 359.975C410.102 358.248 411.255 356.502 412.364 354.729L73.4784 285.327C73.8013 287.393 74.1764 289.452 74.571 291.499L408.935 359.975Z" fill="#98CCED"/>
</svg>
