<svg width="322" height="154" viewBox="0 0 322 154" fill="none" xmlns="http://www.w3.org/2000/svg">
<path d="M180.579 11.0511C183.617 11.0511 186.106 8.58403 186.106 5.52556C186.106 2.46709 183.638 0 180.579 0C177.52 0 175.053 2.46709 175.053 5.52556C175.053 8.58403 177.52 11.0511 180.579 11.0511Z" fill="#C4C4C4"/>
<path d="M180.579 58.4576C183.617 58.4576 186.106 55.9905 186.106 52.9321C186.106 49.8736 183.638 47.4065 180.579 47.4065C177.52 47.4065 175.053 49.8736 175.053 52.9321C175.053 55.9905 177.52 58.4576 180.579 58.4576Z" fill="#C4C4C4"/>
<path d="M180.579 105.884C183.617 105.884 186.106 103.417 186.106 100.359C186.106 97.3003 183.638 94.833 180.579 94.833C177.52 94.833 175.053 97.3003 175.053 100.359C175.053 103.417 177.52 105.884 180.579 105.884Z" fill="#C4C4C4"/>
<path d="M180.579 153.311C183.617 153.311 186.106 150.844 186.106 147.785C186.106 144.727 183.638 142.26 180.579 142.26C177.52 142.26 175.053 144.727 175.053 147.785C175.053 150.844 177.52 153.311 180.579 153.311Z" fill="#C4C4C4"/>
<path d="M225.566 11.0511C228.604 11.0511 231.092 8.58403 231.092 5.52556C231.092 2.46709 228.625 0 225.566 0C222.507 0 220.039 2.46709 220.039 5.52556C220.039 8.58403 222.507 11.0511 225.566 11.0511Z" fill="#C4C4C4"/>
<path d="M225.566 58.4576C228.604 58.4576 231.092 55.9905 231.092 52.9321C231.092 49.8736 228.625 47.4065 225.566 47.4065C222.507 47.4065 220.039 49.8736 220.039 52.9321C220.039 55.9905 222.507 58.4576 225.566 58.4576Z" fill="#C4C4C4"/>
<path d="M225.566 105.884C228.604 105.884 231.092 103.417 231.092 100.359C231.092 97.3003 228.625 94.833 225.566 94.833C222.507 94.833 220.039 97.3003 220.039 100.359C220.039 103.417 222.507 105.884 225.566 105.884Z" fill="#C4C4C4"/>
<path d="M225.566 153.311C228.604 153.311 231.092 150.844 231.092 147.785C231.092 144.727 228.625 142.26 225.566 142.26C222.507 142.26 220.039 144.727 220.039 147.785C220.039 150.844 222.507 153.311 225.566 153.311Z" fill="#C4C4C4"/>
<path d="M270.532 11.0511C273.571 11.0511 276.059 8.58403 276.059 5.52556C276.059 2.46709 273.591 0 270.532 0C267.473 0 265.006 2.46709 265.006 5.52556C265.006 8.58403 267.473 11.0511 270.532 11.0511Z" fill="#C4C4C4"/>
<path d="M270.532 58.4576C273.571 58.4576 276.059 55.9905 276.059 52.9321C276.059 49.8736 273.591 47.4065 270.532 47.4065C267.473 47.4065 265.006 49.8736 265.006 52.9321C265.006 55.9905 267.473 58.4576 270.532 58.4576Z" fill="#C4C4C4"/>
<path d="M270.532 105.884C273.571 105.884 276.059 103.417 276.059 100.359C276.059 97.3003 273.591 94.833 270.532 94.833C267.473 94.833 265.006 97.3003 265.006 100.359C265.006 103.417 267.473 105.884 270.532 105.884Z" fill="#C4C4C4"/>
<path d="M270.532 153.311C273.571 153.311 276.059 150.844 276.059 147.785C276.059 144.727 273.591 142.26 270.532 142.26C267.473 142.26 265.006 144.727 265.006 147.785C265.006 150.844 267.473 153.311 270.532 153.311Z" fill="#C4C4C4"/>
<path d="M315.519 11.0511C318.558 11.0511 321.045 8.58403 321.045 5.52556C321.045 2.46709 318.578 0 315.519 0C312.46 0 309.993 2.46709 309.993 5.52556C309.993 8.58403 312.46 11.0511 315.519 11.0511Z" fill="#C4C4C4"/>
<path d="M315.519 58.4576C318.558 58.4576 321.045 55.9905 321.045 52.9321C321.045 49.8736 318.578 47.4065 315.519 47.4065C312.46 47.4065 309.993 49.8736 309.993 52.9321C309.993 55.9905 312.46 58.4576 315.519 58.4576Z" fill="#C4C4C4"/>
<path d="M315.519 105.884C318.558 105.884 321.045 103.417 321.045 100.359C321.045 97.3003 318.578 94.833 315.519 94.833C312.46 94.833 309.993 97.3003 309.993 100.359C309.993 103.417 312.46 105.884 315.519 105.884Z" fill="#C4C4C4"/>
<path d="M315.519 153.311C318.558 153.311 321.045 150.844 321.045 147.785C321.045 144.727 318.578 142.26 315.519 142.26C312.46 142.26 309.993 144.727 309.993 147.785C309.993 150.844 312.46 153.311 315.519 153.311Z" fill="#C4C4C4"/>
<path d="M5.52645 11.0511C8.565 11.0511 11.0531 8.58403 11.0531 5.52556C11.0531 2.46709 8.58539 0 5.52645 0C2.46752 0 5.53131e-05 2.46709 5.53131e-05 5.52556C5.53131e-05 8.58403 2.46752 11.0511 5.52645 11.0511Z" fill="#C4C4C4"/>
<path d="M5.52645 58.4576C8.565 58.4576 11.0531 55.9905 11.0531 52.9321C11.0531 49.8736 8.58539 47.4065 5.52645 47.4065C2.46752 47.4065 5.53131e-05 49.8736 5.53131e-05 52.9321C5.53131e-05 55.9905 2.46752 58.4576 5.52645 58.4576Z" fill="#C4C4C4"/>
<path d="M5.52645 105.884C8.565 105.884 11.0531 103.417 11.0531 100.359C11.0531 97.3003 8.58539 94.833 5.52645 94.833C2.46752 94.833 5.53131e-05 97.3003 5.53131e-05 100.359C5.53131e-05 103.417 2.46752 105.884 5.52645 105.884Z" fill="#C4C4C4"/>
<path d="M5.52645 153.311C8.565 153.311 11.0531 150.844 11.0531 147.785C11.0531 144.727 8.58539 142.26 5.52645 142.26C2.46752 142.26 5.53131e-05 144.727 5.53131e-05 147.785C5.53131e-05 150.844 2.46752 153.311 5.52645 153.311Z" fill="#C4C4C4"/>
<path d="M50.4928 11.0511C53.5313 11.0511 56.0192 8.58403 56.0192 5.52556C56.0192 2.46709 53.5517 0 50.4928 0C47.4338 0 44.9661 2.46709 44.9661 5.52556C44.9661 8.58403 47.4338 11.0511 50.4928 11.0511Z" fill="#C4C4C4"/>
<path d="M50.4928 58.4576C53.5313 58.4576 56.0192 55.9905 56.0192 52.9321C56.0192 49.8736 53.5517 47.4065 50.4928 47.4065C47.4338 47.4065 44.9661 49.8736 44.9661 52.9321C44.9661 55.9905 47.4338 58.4576 50.4928 58.4576Z" fill="#C4C4C4"/>
<path d="M50.4928 105.884C53.5313 105.884 56.0192 103.417 56.0192 100.359C56.0192 97.3003 53.5517 94.833 50.4928 94.833C47.4338 94.833 44.9661 97.3003 44.9661 100.359C44.9661 103.417 47.4338 105.884 50.4928 105.884Z" fill="#C4C4C4"/>
<path d="M50.4928 153.311C53.5313 153.311 56.0192 150.844 56.0192 147.785C56.0192 144.727 53.5517 142.26 50.4928 142.26C47.4338 142.26 44.9661 144.727 44.9661 147.785C44.9661 150.844 47.4338 153.311 50.4928 153.311Z" fill="#C4C4C4"/>
<path d="M95.4592 11.0511C98.4977 11.0511 100.986 8.58403 100.986 5.52556C100.986 2.46709 98.5181 0 95.4592 0C92.4003 0 89.9328 2.46709 89.9328 5.52556C89.9328 8.58403 92.4003 11.0511 95.4592 11.0511Z" fill="#C4C4C4"/>
<path d="M95.4592 58.4576C98.4977 58.4576 100.986 55.9905 100.986 52.9321C100.986 49.8736 98.5181 47.4065 95.4592 47.4065C92.4003 47.4065 89.9328 49.8736 89.9328 52.9321C89.9328 55.9905 92.4003 58.4576 95.4592 58.4576Z" fill="#C4C4C4"/>
<path d="M95.4592 105.884C98.4977 105.884 100.986 103.417 100.986 100.359C100.986 97.3003 98.5181 94.833 95.4592 94.833C92.4003 94.833 89.9328 97.3003 89.9328 100.359C89.9328 103.417 92.4003 105.884 95.4592 105.884Z" fill="#C4C4C4"/>
<path d="M95.4592 153.311C98.4977 153.311 100.986 150.844 100.986 147.785C100.986 144.727 98.5181 142.26 95.4592 142.26C92.4003 142.26 89.9328 144.727 89.9328 147.785C89.9328 150.844 92.4003 153.311 95.4592 153.311Z" fill="#C4C4C4"/>
<path d="M140.446 11.0511C143.484 11.0511 145.972 8.58403 145.972 5.52556C145.972 2.46709 143.505 0 140.446 0C137.387 0 134.919 2.46709 134.919 5.52556C134.919 8.58403 137.387 11.0511 140.446 11.0511Z" fill="#C4C4C4"/>
<path d="M140.446 58.4576C143.484 58.4576 145.972 55.9905 145.972 52.9321C145.972 49.8736 143.505 47.4065 140.446 47.4065C137.387 47.4065 134.919 49.8736 134.919 52.9321C134.919 55.9905 137.387 58.4576 140.446 58.4576Z" fill="#C4C4C4"/>
<path d="M140.446 105.884C143.484 105.884 145.972 103.417 145.972 100.359C145.972 97.3003 143.505 94.833 140.446 94.833C137.387 94.833 134.919 97.3003 134.919 100.359C134.919 103.417 137.387 105.884 140.446 105.884Z" fill="#C4C4C4"/>
<path d="M140.446 153.311C143.484 153.311 145.972 150.844 145.972 147.785C145.972 144.727 143.505 142.26 140.446 142.26C137.387 142.26 134.919 144.727 134.919 147.785C134.919 150.844 137.387 153.311 140.446 153.311Z" fill="#C4C4C4"/>
</svg>
