<svg width="81" height="164" viewBox="0 0 81 164" fill="none" xmlns="http://www.w3.org/2000/svg">
<path d="M30.8566 18.0731C31.5322 17.5222 32.2184 16.9922 32.9044 16.4726L147.514 131.065C146.995 131.751 146.464 132.437 145.914 133.113L30.8462 18.0627L30.8566 18.0731Z" fill="#98CCED"/>
<path d="M58.8491 3.35696C59.795 3.07635 60.7513 2.81651 61.718 2.56709L161.422 102.256C161.173 103.212 160.913 104.168 160.632 105.125L58.8491 3.35696Z" fill="#98CCED"/>
<path d="M39.1826 12.1593C39.9414 11.6916 40.7003 11.2343 41.4695 10.7978L153.179 122.491C152.743 123.26 152.285 124.019 151.818 124.777L39.1826 12.1593Z" fill="#98CCED"/>
<path d="M48.4756 7.22292C49.3175 6.83838 50.1698 6.47462 51.0222 6.12127L157.867 112.95C157.514 113.803 157.15 114.655 156.766 115.497L48.4756 7.22292Z" fill="#98CCED"/>
<path d="M70.543 0.810326C71.624 0.654434 72.7154 0.529709 73.7965 0.41539L163.584 90.1896C163.47 91.2809 163.345 92.3618 163.189 93.4426L70.543 0.810326Z" fill="#98CCED"/>
<path d="M24.3189 23.9453C24.6203 23.6439 24.932 23.3425 25.2439 23.0411L140.945 138.725C140.644 139.037 140.353 139.349 140.041 139.65C139.74 139.951 139.428 140.253 139.116 140.554L23.4146 24.8702C23.716 24.5584 24.007 24.2467 24.3189 23.9453Z" fill="#98CCED"/>
<path d="M0.546381 87.4149C0.463225 86.1366 0.400812 84.8686 0.369629 83.5903L80.3866 163.595C79.1081 163.564 77.84 163.512 76.5615 163.418L0.535977 87.4045L0.546381 87.4149Z" fill="#98CCED"/>
<path d="M0.785156 73.4157C0.899496 72.3244 1.02424 71.2436 1.18015 70.1627L93.8265 162.795C92.7455 162.951 91.654 163.076 90.573 163.19L0.785156 73.4157Z" fill="#98CCED"/>
<path d="M3.61283 104.719C3.13468 103.087 2.71893 101.456 2.34473 99.8033L64.1713 161.62C62.5186 161.246 60.8866 160.831 59.2547 160.353L3.61283 104.719Z" fill="#98CCED"/>
<path d="M40.6172 152.298C34.7962 148.868 29.3184 144.649 24.3186 139.65C19.3189 134.651 15.109 129.174 11.6685 123.354L40.6172 152.298Z" fill="#98CCED"/>
<path d="M11.1694 41.1039C11.606 40.3348 12.0633 39.5762 12.531 38.8175L125.166 151.435C124.407 151.903 123.648 152.36 122.879 152.797L11.1694 41.1039Z" fill="#98CCED"/>
<path d="M16.8447 32.5296C17.3645 31.8436 17.8946 31.1577 18.4455 30.4822L133.513 145.532C132.837 146.083 132.151 146.613 131.465 147.133L16.8551 32.54L16.8447 32.5296Z" fill="#98CCED"/>
<path d="M2.93701 61.339C3.18648 60.3828 3.44635 59.4267 3.72701 58.4705L105.51 160.238C104.564 160.519 103.608 160.779 102.641 161.028L2.93701 61.339Z" fill="#98CCED"/>
<path d="M6.4917 50.6548C6.84511 49.8026 7.20885 48.9504 7.59345 48.1086L115.884 156.382C115.042 156.767 114.189 157.131 113.337 157.484L6.4917 50.6548Z" fill="#98CCED"/>
</svg>
