<svg width="80" height="307" viewBox="0 0 80 307" fill="none" xmlns="http://www.w3.org/2000/svg">
<circle cx="12.4997" cy="300.683" r="6.13639" transform="rotate(-90 12.4997 300.683)" fill="#BDBDBD"/>
<circle cx="12.4997" cy="263.865" r="6.13639" transform="rotate(-90 12.4997 263.865)" fill="#BDBDBD"/>
<circle cx="12.4997" cy="227.047" r="6.13639" transform="rotate(-90 12.4997 227.047)" fill="#BDBDBD"/>
<circle cx="43.1823" cy="300.683" r="6.13639" transform="rotate(-90 43.1823 300.683)" fill="#BDBDBD"/>
<circle cx="43.1823" cy="263.865" r="6.13639" transform="rotate(-90 43.1823 263.865)" fill="#BDBDBD"/>
<circle cx="43.1823" cy="227.047" r="6.13639" transform="rotate(-90 43.1823 227.047)" fill="#BDBDBD"/>
<circle cx="12.4997" cy="190.227" r="6.13639" transform="rotate(-90 12.4997 190.227)" fill="#BDBDBD"/>
<circle cx="12.4997" cy="153.409" r="6.13639" transform="rotate(-90 12.4997 153.409)" fill="#BDBDBD"/>
<circle cx="12.4997" cy="116.591" r="6.13639" transform="rotate(-90 12.4997 116.591)" fill="#BDBDBD"/>
<circle cx="43.1823" cy="190.227" r="6.13639" transform="rotate(-90 43.1823 190.227)" fill="#BDBDBD"/>
<circle cx="43.1823" cy="153.409" r="6.13639" transform="rotate(-90 43.1823 153.409)" fill="#BDBDBD"/>
<circle cx="43.1823" cy="116.591" r="6.13639" transform="rotate(-90 43.1823 116.591)" fill="#BDBDBD"/>
<circle cx="12.4997" cy="79.7734" r="6.13639" transform="rotate(-90 12.4997 79.7734)" fill="#BDBDBD"/>
<circle cx="12.4997" cy="42.9557" r="6.13639" transform="rotate(-90 12.4997 42.9557)" fill="#BDBDBD"/>
<circle cx="12.4997" cy="6.13638" r="6.13639" transform="rotate(-90 12.4997 6.13638)" fill="#BDBDBD"/>
<circle cx="43.1823" cy="79.7734" r="6.13639" transform="rotate(-90 43.1823 79.7734)" fill="#BDBDBD"/>
<circle cx="43.1823" cy="42.9557" r="6.13639" transform="rotate(-90 43.1823 42.9557)" fill="#BDBDBD"/>
<circle cx="43.1823" cy="6.13638" r="6.13639" transform="rotate(-90 43.1823 6.13638)" fill="#BDBDBD"/>
<circle cx="73.8634" cy="300.683" r="6.13639" transform="rotate(-90 73.8634 300.683)" fill="#BDBDBD"/>
<circle cx="73.8634" cy="263.865" r="6.13639" transform="rotate(-90 73.8634 263.865)" fill="#BDBDBD"/>
<circle cx="73.8634" cy="227.047" r="6.13639" transform="rotate(-90 73.8634 227.047)" fill="#BDBDBD"/>
<circle cx="73.8634" cy="190.227" r="6.13639" transform="rotate(-90 73.8634 190.227)" fill="#BDBDBD"/>
<circle cx="73.8634" cy="153.409" r="6.13639" transform="rotate(-90 73.8634 153.409)" fill="#BDBDBD"/>
<circle cx="73.8634" cy="116.591" r="6.13639" transform="rotate(-90 73.8634 116.591)" fill="#BDBDBD"/>
<circle cx="73.8634" cy="79.7734" r="6.13639" transform="rotate(-90 73.8634 79.7734)" fill="#BDBDBD"/>
<circle cx="73.8634" cy="42.9557" r="6.13639" transform="rotate(-90 73.8634 42.9557)" fill="#BDBDBD"/>
<circle cx="73.8634" cy="6.13638" r="6.13639" transform="rotate(-90 73.8634 6.13638)" fill="#BDBDBD"/>
</svg>
