<svg width="51" height="51" viewBox="0 0 51 51" fill="none" xmlns="http://www.w3.org/2000/svg">
<path d="M3.81794 48.3568C0.827106 45.5706 0.661089 40.8754 3.44768 37.885L36.3151 2.61339C39.1017 -0.37703 43.7976 -0.54307 46.7885 2.24307C49.7793 5.0292 49.9453 9.72447 47.1588 12.7149L14.2913 47.9865C11.5047 50.9769 6.80878 51.1429 3.81794 48.3568Z" fill="#1F4495"/>
<path d="M37.8899 47.1521L2.6134 14.2899C-0.377443 11.5038 -0.54346 6.80853 2.24313 3.81812C5.02972 0.827701 9.72565 0.661661 12.7165 3.4478L47.993 36.3099C50.9839 39.096 51.1499 43.7913 48.3633 46.7817C45.5767 49.7721 40.8808 49.9382 37.8899 47.1521Z" fill="#1F4495"/>
</svg>
