<svg width="438" height="218" viewBox="0 0 438 218" fill="none" xmlns="http://www.w3.org/2000/svg">
<circle cx="13.134" cy="9.87638" r="9.87638" fill="#1A74E4"/>
<circle cx="72.3916" cy="9.87638" r="9.87638" fill="#1A74E4"/>
<circle cx="13.134" cy="59.259" r="9.87638" fill="#1A74E4"/>
<circle cx="72.3916" cy="59.259" r="9.87638" fill="#1A74E4"/>
<circle cx="131.653" cy="9.87638" r="9.87638" fill="#1A74E4"/>
<circle cx="190.911" cy="9.87638" r="9.87638" fill="#1A74E4"/>
<circle cx="250.168" cy="9.87638" r="9.87638" fill="#1A74E4"/>
<circle cx="131.653" cy="59.259" r="9.87638" fill="#1A74E4"/>
<circle cx="190.911" cy="59.259" r="9.87638" fill="#1A74E4"/>
<circle cx="250.168" cy="59.259" r="9.87638" fill="#1A74E4"/>
<circle cx="13.134" cy="108.64" r="9.87638" fill="#1A74E4"/>
<circle cx="72.3916" cy="108.64" r="9.87638" fill="#1A74E4"/>
<circle cx="13.134" cy="158.022" r="9.87638" fill="#1A74E4"/>
<circle cx="72.3916" cy="158.022" r="9.87638" fill="#1A74E4"/>
<circle cx="131.653" cy="108.64" r="9.87638" fill="#1A74E4"/>
<circle cx="190.911" cy="108.64" r="9.87638" fill="#1A74E4"/>
<circle cx="250.168" cy="108.64" r="9.87638" fill="#1A74E4"/>
<circle cx="131.653" cy="158.022" r="9.87638" fill="#1A74E4"/>
<circle cx="190.911" cy="158.022" r="9.87638" fill="#1A74E4"/>
<circle cx="250.168" cy="158.022" r="9.87638" fill="#1A74E4"/>
<circle cx="309.426" cy="9.87638" r="9.87638" fill="#1A74E4"/>
<circle cx="368.683" cy="9.87638" r="9.87638" fill="#1A74E4"/>
<circle cx="427.943" cy="9.87638" r="9.87638" fill="#1A74E4"/>
<circle cx="309.426" cy="59.259" r="9.87638" fill="#1A74E4"/>
<circle cx="368.683" cy="59.259" r="9.87638" fill="#1A74E4"/>
<circle cx="427.943" cy="59.259" r="9.87638" fill="#1A74E4"/>
<circle cx="309.426" cy="108.64" r="9.87638" fill="#1A74E4"/>
<circle cx="368.683" cy="108.64" r="9.87638" fill="#1A74E4"/>
<circle cx="427.943" cy="108.64" r="9.87638" fill="#1A74E4"/>
<circle cx="309.426" cy="158.022" r="9.87638" fill="#1A74E4"/>
<circle cx="368.683" cy="158.022" r="9.87638" fill="#1A74E4"/>
<circle cx="427.943" cy="158.022" r="9.87638" fill="#1A74E4"/>
<circle cx="13.134" cy="207.403" r="9.87638" fill="#1A74E4"/>
<circle cx="72.3916" cy="207.403" r="9.87638" fill="#1A74E4"/>
<circle cx="131.653" cy="207.403" r="9.87638" fill="#1A74E4"/>
<circle cx="190.911" cy="207.403" r="9.87638" fill="#1A74E4"/>
<circle cx="250.168" cy="207.403" r="9.87638" fill="#1A74E4"/>
<circle cx="309.426" cy="207.403" r="9.87638" fill="#1A74E4"/>
<circle cx="368.683" cy="207.403" r="9.87638" fill="#1A74E4"/>
<circle cx="427.943" cy="207.403" r="9.87638" fill="#1A74E4"/>
</svg>
