<svg width="323" height="436" viewBox="0 0 323 436" fill="none" xmlns="http://www.w3.org/2000/svg">
<path d="M324.362 74.3467C325.896 75.4739 327.392 76.6347 328.866 77.8009L149.274 382.812C147.54 382.089 145.799 381.343 144.069 380.548L324.378 74.319L324.362 74.3467Z" fill="#1F4495"/>
<path d="M370.79 125.483C371.901 127.329 372.974 129.209 374.03 131.117L217.795 396.46C215.637 396.455 213.473 396.429 211.298 396.358L370.79 125.483Z" fill="#1F4495"/>
<path d="M341.42 88.7163C342.824 90.0648 344.206 91.4192 345.55 92.8067L170.502 390.1C168.637 389.598 166.782 389.046 164.922 388.472L341.42 88.7163Z" fill="#1F4495"/>
<path d="M356.941 105.664C358.214 107.234 359.45 108.837 360.663 110.446L193.238 394.793C191.243 394.512 189.242 394.209 187.252 393.857L356.941 105.664Z" fill="#1F4495"/>
<path d="M382.572 148.814C383.493 151.015 384.353 153.254 385.186 155.477L244.49 394.43C242.12 394.785 239.767 395.113 237.396 395.374L382.572 148.814Z" fill="#1F4495"/>
<path d="M308.369 63.7357C309.171 64.2082 309.979 64.7024 310.787 65.1968L129.485 373.113C128.66 372.647 127.842 372.202 127.034 371.707C126.232 371.235 125.424 370.74 124.616 370.246L305.919 62.3296C306.743 62.7964 307.561 63.2412 308.369 63.7357Z" fill="#1F4495"/>
<path d="M391.633 176.765C392.267 179.485 392.85 182.195 393.352 184.95L274.221 387.277C271.564 388.152 268.917 388.977 266.231 389.742L391.617 176.793L391.633 176.765Z" fill="#1F4495"/>
<path d="M299.448 376.67L396.329 212.13C396.442 215.829 396.456 219.507 396.338 223.219L309.148 371.299C305.959 373.203 302.737 374.974 299.448 376.67Z" fill="#1F4495"/>
<path d="M161.168 48.1937C163.826 47.3186 166.472 46.493 169.158 45.7278L43.7725 258.677C43.139 255.957 42.5553 253.247 42.0536 250.493L161.184 48.166L161.168 48.1937Z" fill="#1F4495"/>
<path d="M190.898 41.0403C193.268 40.6851 195.621 40.3576 197.992 40.0959L52.8163 286.656C51.8953 284.456 51.0346 282.216 50.2015 279.993L190.898 41.0403Z" fill="#1F4495"/>
<path d="M126.259 64.1423C129.447 62.2387 132.67 60.4671 135.959 58.7719L39.0775 223.311C38.9644 219.612 38.9506 215.934 39.0687 212.222L126.259 64.1423Z" fill="#1F4495"/>
<path d="M45.9035 168.41C49.9707 154.227 55.8958 140.336 63.7303 127.03C71.5649 113.724 80.8424 101.827 91.2658 91.3689L45.9035 168.41Z" fill="#1F4495"/>
<path d="M264.897 45.3209C266.762 45.8232 268.616 46.3751 270.476 46.9491L93.9786 346.705C92.5746 345.356 91.1927 344.002 89.849 342.615L264.897 45.3209Z" fill="#1F4495"/>
<path d="M286.131 52.6299C287.865 53.3535 289.606 54.0992 291.335 54.8945L111.026 361.123C109.492 359.996 107.996 358.836 106.522 357.669L286.114 52.6575L286.131 52.6299Z" fill="#1F4495"/>
<path d="M217.609 38.9837C219.767 38.9881 221.931 39.0145 224.106 39.0848L64.6137 309.961C63.5029 308.114 62.4304 306.234 61.3742 304.327L217.609 38.9837Z" fill="#1F4495"/>
<path d="M242.144 40.6554C244.139 40.9365 246.14 41.2394 248.131 41.592L78.4415 329.785C77.1679 328.215 75.9325 326.612 74.7191 325.003L242.144 40.6554Z" fill="#1F4495"/>
</svg>
