<svg width="137" height="190" viewBox="0 0 137 190" fill="none" xmlns="http://www.w3.org/2000/svg">
<ellipse cx="6.52381" cy="182.931" rx="6.52381" ry="6.52381" transform="rotate(-90 6.52381 182.931)" fill="white"/>
<ellipse cx="6.52381" cy="160.913" rx="6.52381" ry="6.52381" transform="rotate(-90 6.52381 160.913)" fill="white"/>
<ellipse cx="6.52381" cy="138.895" rx="6.52381" ry="6.52381" transform="rotate(-90 6.52381 138.895)" fill="white"/>
<ellipse cx="37.5119" cy="182.931" rx="6.52381" ry="6.52381" transform="rotate(-90 37.5119 182.931)" fill="white"/>
<ellipse cx="37.5119" cy="160.913" rx="6.52381" ry="6.52381" transform="rotate(-90 37.5119 160.913)" fill="white"/>
<ellipse cx="37.5119" cy="138.895" rx="6.52381" ry="6.52381" transform="rotate(-90 37.5119 138.895)" fill="white"/>
<ellipse cx="6.52381" cy="116.877" rx="6.52381" ry="6.52381" transform="rotate(-90 6.52381 116.877)" fill="white"/>
<ellipse cx="6.52381" cy="94.8592" rx="6.52381" ry="6.52381" transform="rotate(-90 6.52381 94.8592)" fill="white"/>
<ellipse cx="6.52381" cy="72.8414" rx="6.52381" ry="6.52381" transform="rotate(-90 6.52381 72.8414)" fill="white"/>
<ellipse cx="37.5119" cy="116.877" rx="6.52381" ry="6.52381" transform="rotate(-90 37.5119 116.877)" fill="white"/>
<ellipse cx="37.5119" cy="94.8592" rx="6.52381" ry="6.52381" transform="rotate(-90 37.5119 94.8592)" fill="white"/>
<ellipse cx="37.5119" cy="72.8414" rx="6.52381" ry="6.52381" transform="rotate(-90 37.5119 72.8414)" fill="white"/>
<ellipse cx="68.4999" cy="182.931" rx="6.52381" ry="6.52381" transform="rotate(-90 68.4999 182.931)" fill="white"/>
<ellipse cx="68.4999" cy="160.913" rx="6.52381" ry="6.52381" transform="rotate(-90 68.4999 160.913)" fill="white"/>
<ellipse cx="68.4999" cy="138.895" rx="6.52381" ry="6.52381" transform="rotate(-90 68.4999 138.895)" fill="white"/>
<ellipse cx="99.488" cy="182.931" rx="6.52381" ry="6.52381" transform="rotate(-90 99.488 182.931)" fill="white"/>
<ellipse cx="99.488" cy="160.913" rx="6.52381" ry="6.52381" transform="rotate(-90 99.488 160.913)" fill="white"/>
<ellipse cx="99.488" cy="138.895" rx="6.52381" ry="6.52381" transform="rotate(-90 99.488 138.895)" fill="white"/>
<ellipse cx="68.4999" cy="116.877" rx="6.52381" ry="6.52381" transform="rotate(-90 68.4999 116.877)" fill="white"/>
<ellipse cx="68.4999" cy="94.8592" rx="6.52381" ry="6.52381" transform="rotate(-90 68.4999 94.8592)" fill="white"/>
<ellipse cx="68.4999" cy="72.8414" rx="6.52381" ry="6.52381" transform="rotate(-90 68.4999 72.8414)" fill="white"/>
<ellipse cx="99.488" cy="116.877" rx="6.52381" ry="6.52381" transform="rotate(-90 99.488 116.877)" fill="white"/>
<ellipse cx="99.488" cy="94.8592" rx="6.52381" ry="6.52381" transform="rotate(-90 99.488 94.8592)" fill="white"/>
<ellipse cx="99.488" cy="72.8414" rx="6.52381" ry="6.52381" transform="rotate(-90 99.488 72.8414)" fill="white"/>
<ellipse cx="6.52381" cy="50.8236" rx="6.52381" ry="6.52381" transform="rotate(-90 6.52381 50.8236)" fill="white"/>
<ellipse cx="6.52381" cy="28.8058" rx="6.52381" ry="6.52381" transform="rotate(-90 6.52381 28.8058)" fill="white"/>
<ellipse cx="6.52381" cy="6.78796" rx="6.52381" ry="6.52381" transform="rotate(-90 6.52381 6.78796)" fill="white"/>
<ellipse cx="37.5119" cy="50.8236" rx="6.52381" ry="6.52381" transform="rotate(-90 37.5119 50.8236)" fill="white"/>
<ellipse cx="37.5119" cy="28.8058" rx="6.52381" ry="6.52381" transform="rotate(-90 37.5119 28.8058)" fill="white"/>
<ellipse cx="37.5119" cy="6.78796" rx="6.52381" ry="6.52381" transform="rotate(-90 37.5119 6.78796)" fill="white"/>
<ellipse cx="68.4999" cy="50.8236" rx="6.52381" ry="6.52381" transform="rotate(-90 68.4999 50.8236)" fill="white"/>
<ellipse cx="68.4999" cy="28.8058" rx="6.52381" ry="6.52381" transform="rotate(-90 68.4999 28.8058)" fill="white"/>
<ellipse cx="68.4999" cy="6.78796" rx="6.52381" ry="6.52381" transform="rotate(-90 68.4999 6.78796)" fill="white"/>
<ellipse cx="99.488" cy="50.8236" rx="6.52381" ry="6.52381" transform="rotate(-90 99.488 50.8236)" fill="white"/>
<ellipse cx="99.488" cy="28.8058" rx="6.52381" ry="6.52381" transform="rotate(-90 99.488 28.8058)" fill="white"/>
<ellipse cx="99.488" cy="6.78796" rx="6.52381" ry="6.52381" transform="rotate(-90 99.488 6.78796)" fill="white"/>
<ellipse cx="130.476" cy="182.931" rx="6.52381" ry="6.52381" transform="rotate(-90 130.476 182.931)" fill="white"/>
<ellipse cx="130.476" cy="160.913" rx="6.52381" ry="6.52381" transform="rotate(-90 130.476 160.913)" fill="white"/>
<ellipse cx="130.476" cy="138.895" rx="6.52381" ry="6.52381" transform="rotate(-90 130.476 138.895)" fill="white"/>
<ellipse cx="130.476" cy="116.877" rx="6.52381" ry="6.52381" transform="rotate(-90 130.476 116.877)" fill="white"/>
<ellipse cx="130.476" cy="94.8592" rx="6.52381" ry="6.52381" transform="rotate(-90 130.476 94.8592)" fill="white"/>
<ellipse cx="130.476" cy="72.8414" rx="6.52381" ry="6.52381" transform="rotate(-90 130.476 72.8414)" fill="white"/>
<ellipse cx="130.476" cy="50.8236" rx="6.52381" ry="6.52381" transform="rotate(-90 130.476 50.8236)" fill="white"/>
<ellipse cx="130.476" cy="28.8058" rx="6.52381" ry="6.52381" transform="rotate(-90 130.476 28.8058)" fill="white"/>
<ellipse cx="130.476" cy="6.78796" rx="6.52381" ry="6.52381" transform="rotate(-90 130.476 6.78796)" fill="white"/>
</svg>
