<svg width="308" height="308" viewBox="0 0 308 308" fill="none" xmlns="http://www.w3.org/2000/svg">
<path d="M88.6447 269.737C89.8787 270.435 91.1238 271.098 92.3659 271.744L244.852 56.6699C243.831 55.7119 242.794 54.7566 241.726 53.8238L88.6309 269.756L88.6447 269.737Z" fill="#1F4495"/>
<path d="M137.554 285.688C139.148 285.88 140.753 286.035 142.371 286.171L275.025 99.0692C274.364 97.6041 273.686 96.1417 272.975 94.6851L137.554 285.688Z" fill="#1F4495"/>
<path d="M103.612 276.945C104.957 277.488 106.299 278.014 107.651 278.504L256.279 68.8723C255.369 67.7582 254.428 66.6665 253.471 65.5777L103.612 276.945Z" fill="#1F4495"/>
<path d="M119.862 282.323C121.318 282.709 122.784 283.06 124.247 283.394L266.403 82.8909C265.603 81.6208 264.787 80.3536 263.94 79.1087L119.862 282.323Z" fill="#1F4495"/>
<path d="M157.003 286.578C158.779 286.532 160.563 286.434 162.328 286.322L281.789 117.829C281.308 116.11 280.812 114.411 280.267 112.72L157.003 286.578Z" fill="#1F4495"/>
<path d="M76.5558 262.106C77.1215 262.507 77.7037 262.905 78.2861 263.303L232.225 46.181C231.656 45.7633 231.104 45.3429 230.522 44.9448C229.956 44.5438 229.374 44.1457 228.791 43.7475L74.8529 260.87C75.4215 261.287 75.9734 261.708 76.5558 262.106Z" fill="#1F4495"/>
<path d="M178.76 284.209C180.802 283.809 182.821 283.38 184.846 282.88L285.997 140.213C285.781 138.14 285.535 136.09 285.235 134.032L178.774 284.189L178.76 284.209Z" fill="#1F4495"/>
<path d="M286.484 160.59L204.225 276.613C206.773 275.561 209.276 274.449 211.763 273.236L285.793 168.82C286.114 166.073 286.335 163.343 286.484 160.59Z" fill="#1F4495"/>
<path d="M21.095 166.819C21.3108 168.891 21.5571 170.942 21.8564 173L128.317 22.8423C126.276 23.2415 124.256 23.6714 122.232 24.1706L21.0811 166.838L21.095 166.819Z" fill="#1F4495"/>
<path d="M25.3025 189.203C25.784 190.921 26.2793 192.62 26.8246 194.311L150.089 20.4536C148.313 20.499 146.528 20.5971 144.764 20.7091L25.3025 189.203Z" fill="#1F4495"/>
<path d="M239.449 255.228C247.847 248.137 255.479 239.874 262.131 230.492C268.783 221.109 274.038 211.176 277.965 200.903L239.449 255.228Z" fill="#1F4495"/>
<path d="M21.2848 138.231C20.9638 140.979 20.7429 143.709 20.5942 146.461L102.853 30.4389C100.305 31.4903 97.8018 32.6028 95.3154 33.8153L21.2848 138.231Z" fill="#1F4495"/>
<path d="M67.6283 51.8233C59.2306 58.9134 51.5989 67.1765 44.9468 76.5589C38.2947 85.9413 33.04 95.8746 29.1126 106.148L67.6283 51.8233Z" fill="#1F4495"/>
<path d="M50.782 238.182C51.6922 239.296 52.6328 240.388 53.5901 241.476L203.449 30.1087C202.104 29.566 200.763 29.04 199.41 28.5501L50.782 238.182Z" fill="#1F4495"/>
<path d="M62.2257 250.381C63.2465 251.339 64.2841 252.295 65.3521 253.227L218.447 37.2952C217.213 36.5964 215.968 35.9339 214.726 35.288L62.2395 250.362L62.2257 250.381Z" fill="#1F4495"/>
<path d="M32.0522 207.981C32.7134 209.447 33.3914 210.909 34.1027 212.366L169.523 21.3621C167.93 21.1706 166.325 21.0151 164.707 20.8792L32.0522 207.981Z" fill="#1F4495"/>
<path d="M40.6718 224.144C41.4714 225.414 42.2875 226.681 43.1342 227.926L187.212 24.7117C185.757 24.3251 184.291 23.9746 182.827 23.6408L40.6718 224.144Z" fill="#1F4495"/>
</svg>
