<svg width="340" height="451" viewBox="0 0 340 451" fill="none" xmlns="http://www.w3.org/2000/svg">
<path d="M75.5308 127.554C76.5614 125.953 77.628 124.388 78.7013 122.845L394.186 283.328C393.571 285.103 392.934 286.886 392.247 288.662L75.5021 127.539L75.5308 127.554Z" fill="#98CCED"/>
<path d="M123.713 78.0664C125.488 76.8441 127.298 75.6579 129.137 74.4863L403.591 214.097C403.719 216.251 403.826 218.412 403.89 220.588L123.713 78.0664Z" fill="#98CCED"/>
<path d="M88.8232 109.644C90.0828 108.16 91.3495 106.697 92.6518 105.27L400.154 261.692C399.767 263.584 399.331 265.469 398.872 267.36L88.8232 109.644Z" fill="#98CCED"/>
<path d="M104.784 93.1092C106.272 91.7414 107.796 90.4098 109.327 89.0996L403.439 238.709C403.281 240.718 403.102 242.734 402.872 244.742L104.784 93.1092Z" fill="#98CCED"/>
<path d="M146.275 64.8715C148.415 63.8169 150.597 62.82 152.765 61.8517L399.923 187.577C400.423 189.92 400.895 192.249 401.302 194.599L146.275 64.8715Z" fill="#98CCED"/>
<path d="M65.9238 144.168C66.346 143.339 66.7896 142.502 67.2334 141.665L385.723 303.676C385.308 304.527 384.914 305.371 384.471 306.208C384.048 307.038 383.605 307.874 383.161 308.711L64.6712 146.701C65.0864 145.849 65.48 145.005 65.9238 144.168Z" fill="#98CCED"/>
<path d="M173.615 54.1077C176.292 53.308 178.96 52.5586 181.679 51.8884L390.953 158.343C391.99 160.941 392.977 163.532 393.906 166.166L173.644 54.1223L173.615 54.1077Z" fill="#98CCED"/>
<path d="M378.814 133.817L208.624 47.2444C212.31 46.9039 215.98 46.6638 219.692 46.5532L372.857 124.466C374.953 127.531 376.919 130.638 378.814 133.817Z" fill="#98CCED"/>
<path d="M59.4698 292.047C58.4328 289.449 57.4459 286.858 56.5169 284.224L276.779 396.268C274.102 397.068 271.434 397.817 268.716 398.487L59.4412 292.033L59.4698 292.047Z" fill="#98CCED"/>
<path d="M50.5006 262.814C50.0002 260.471 49.5284 258.142 49.1214 255.792L304.148 385.519C302.008 386.574 299.826 387.571 297.658 388.539L50.5006 262.814Z" fill="#98CCED"/>
<path d="M263.841 50.68C278.248 53.8667 292.477 58.9257 306.24 65.9266C320.003 72.9275 332.448 81.4552 343.528 91.2154L263.841 50.68Z" fill="#98CCED"/>
<path d="M77.5366 325.91C75.4404 322.844 73.4738 319.737 71.5795 316.558L241.769 403.131C238.084 403.471 234.414 403.711 230.701 403.822L77.5366 325.91Z" fill="#98CCED"/>
<path d="M186.552 399.696C172.145 396.509 157.916 391.45 144.153 384.449C130.39 377.448 117.945 368.921 106.865 359.16L186.552 399.696Z" fill="#98CCED"/>
<path d="M50.2191 188.692C50.6057 186.8 51.0424 184.915 51.5008 183.023L361.55 340.74C360.29 342.224 359.024 343.687 357.721 345.113L50.2191 188.692Z" fill="#98CCED"/>
<path d="M56.2076 167.049C56.8231 165.273 57.4604 163.49 58.1477 161.715L374.892 322.837C373.861 324.438 372.795 326.003 371.722 327.545L56.2362 167.063L56.2076 167.049Z" fill="#98CCED"/>
<path d="M46.8038 236.28C46.6754 234.126 46.5686 231.964 46.505 229.789L326.682 372.31C324.908 373.533 323.097 374.719 321.258 375.89L46.8038 236.28Z" fill="#98CCED"/>
<path d="M46.9627 211.689C47.1204 209.68 47.2996 207.664 47.5291 205.656L345.618 357.289C344.13 358.657 342.605 359.988 341.074 361.299L46.9627 211.689Z" fill="#98CCED"/>
</svg>
