<svg width="231" height="102" viewBox="0 0 231 102" fill="none" xmlns="http://www.w3.org/2000/svg">
<circle cx="5.54749" cy="4.59339" r="4.59339" fill="#1F4495"/>
<circle cx="33.1075" cy="4.59339" r="4.59339" fill="#1F4495"/>
<circle cx="60.6676" cy="4.59339" r="4.59339" fill="#1F4495"/>
<circle cx="5.54749" cy="27.5607" r="4.59339" fill="#1F4495"/>
<circle cx="33.1075" cy="27.5607" r="4.59339" fill="#1F4495"/>
<circle cx="60.6676" cy="27.5607" r="4.59339" fill="#1F4495"/>
<circle cx="88.2291" cy="4.59339" r="4.59339" fill="#1F4495"/>
<circle cx="115.789" cy="4.59339" r="4.59339" fill="#1F4495"/>
<circle cx="143.349" cy="4.59339" r="4.59339" fill="#1F4495"/>
<circle cx="88.2291" cy="27.5607" r="4.59339" fill="#1F4495"/>
<circle cx="115.789" cy="27.5607" r="4.59339" fill="#1F4495"/>
<circle cx="143.349" cy="27.5607" r="4.59339" fill="#1F4495"/>
<circle cx="5.54749" cy="50.527" r="4.59339" fill="#1F4495"/>
<circle cx="33.1075" cy="50.527" r="4.59339" fill="#1F4495"/>
<circle cx="60.6676" cy="50.527" r="4.59339" fill="#1F4495"/>
<circle cx="5.54749" cy="73.4943" r="4.59339" fill="#1F4495"/>
<circle cx="33.1075" cy="73.4943" r="4.59339" fill="#1F4495"/>
<circle cx="60.6676" cy="73.4943" r="4.59339" fill="#1F4495"/>
<circle cx="88.2291" cy="50.527" r="4.59339" fill="#1F4495"/>
<circle cx="115.789" cy="50.527" r="4.59339" fill="#1F4495"/>
<circle cx="143.349" cy="50.527" r="4.59339" fill="#1F4495"/>
<circle cx="88.2291" cy="73.4943" r="4.59339" fill="#1F4495"/>
<circle cx="115.789" cy="73.4943" r="4.59339" fill="#1F4495"/>
<circle cx="143.349" cy="73.4943" r="4.59339" fill="#1F4495"/>
<circle cx="170.909" cy="4.59339" r="4.59339" fill="#1F4495"/>
<circle cx="198.469" cy="4.59339" r="4.59339" fill="#1F4495"/>
<circle cx="226.03" cy="4.59339" r="4.59339" fill="#1F4495"/>
<circle cx="170.909" cy="27.5607" r="4.59339" fill="#1F4495"/>
<circle cx="198.469" cy="27.5607" r="4.59339" fill="#1F4495"/>
<circle cx="226.03" cy="27.5607" r="4.59339" fill="#1F4495"/>
<circle cx="170.909" cy="50.527" r="4.59339" fill="#1F4495"/>
<circle cx="198.469" cy="50.527" r="4.59339" fill="#1F4495"/>
<circle cx="226.03" cy="50.527" r="4.59339" fill="#1F4495"/>
<circle cx="170.909" cy="73.4943" r="4.59339" fill="#1F4495"/>
<circle cx="198.469" cy="73.4943" r="4.59339" fill="#1F4495"/>
<circle cx="226.03" cy="73.4943" r="4.59339" fill="#1F4495"/>
<circle cx="5.54749" cy="96.4606" r="4.59339" fill="#1F4495"/>
<circle cx="33.1075" cy="96.4606" r="4.59339" fill="#1F4495"/>
<circle cx="60.6676" cy="96.4606" r="4.59339" fill="#1F4495"/>
<circle cx="88.2291" cy="96.4606" r="4.59339" fill="#1F4495"/>
<circle cx="115.789" cy="96.4606" r="4.59339" fill="#1F4495"/>
<circle cx="143.349" cy="96.4606" r="4.59339" fill="#1F4495"/>
<circle cx="170.909" cy="96.4606" r="4.59339" fill="#1F4495"/>
<circle cx="198.469" cy="96.4606" r="4.59339" fill="#1F4495"/>
<circle cx="226.03" cy="96.4606" r="4.59339" fill="#1F4495"/>
</svg>
