<svg width="347" height="416" viewBox="0 0 347 416" fill="none" xmlns="http://www.w3.org/2000/svg">
<path d="M435.392 115.169C434.946 113.267 434.453 111.388 433.945 109.527L73.7553 156.238C73.7399 158.166 73.7429 160.109 73.7971 162.062L435.425 115.165L435.392 115.169Z" fill="#1F4495"/>
<path d="M405.819 50.7607C404.524 48.9689 403.181 47.1998 401.806 45.435L88.4609 86.0707C87.5962 88.1094 86.75 90.1624 85.9406 92.2437L405.819 50.7607Z" fill="#1F4495"/>
<path d="M428.698 93.2834C427.99 91.4154 427.268 89.5657 426.499 87.7389L75.4235 133.268C75.1468 135.23 74.9213 137.203 74.7142 139.189L428.698 93.2834Z" fill="#1F4495"/>
<path d="M418.95 71.8112C417.981 69.9771 416.965 68.1657 415.935 66.3727L80.1475 109.919C79.6095 111.915 79.09 113.926 78.6216 115.946L418.95 71.8112Z" fill="#1F4495"/>
<path d="M388.541 30.2472C386.835 28.492 385.068 26.778 383.305 25.0967L101.124 61.6908C99.8348 63.7846 98.5781 65.8741 97.3767 68.0063L388.541 30.2472Z" fill="#1F4495"/>
<path d="M438.969 134.536C438.846 133.588 438.704 132.627 438.563 131.665L74.9426 178.821C75.0514 179.787 75.1418 180.738 75.2833 181.7C75.4063 182.647 75.5478 183.609 75.6892 184.57L439.309 137.415C439.201 136.449 439.11 135.497 438.969 134.536Z" fill="#1F4495"/>
<path d="M365.807 10.4426C363.494 8.74953 361.172 7.10753 358.774 5.52514L119.845 36.5101C117.949 38.6659 116.104 40.8317 114.301 43.0586L365.774 10.4469L365.807 10.4426Z" fill="#1F4495"/>
<path d="M140.012 16.9702L334.317 -8.2279C330.871 -9.82384 327.405 -11.3176 323.854 -12.7006L148.986 9.97689C145.906 12.2199 142.936 14.5482 140.012 16.9702Z" fill="#1F4495"/>
<path d="M394.375 279.729C396.271 277.573 398.116 275.407 399.92 273.181L148.446 305.793C150.759 307.486 153.081 309.127 155.479 310.71L394.408 279.725L394.375 279.729Z" fill="#1F4495"/>
<path d="M413.096 254.548C414.385 252.455 415.642 250.365 416.843 248.233L125.679 285.992C127.385 287.747 129.153 289.461 130.916 291.142L413.096 254.548Z" fill="#1F4495"/>
<path d="M279.75 -23.8875C264.726 -25.7589 249.229 -25.759 233.516 -23.7213C217.803 -21.6836 202.839 -17.7168 188.771 -12.0891L279.75 -23.8875Z" fill="#1F4495"/>
<path d="M365.267 306.257C368.347 304.014 371.317 301.686 374.241 299.264L179.936 324.462C183.382 326.058 186.847 327.552 190.399 328.935L365.267 306.257Z" fill="#1F4495"/>
<path d="M234.502 340.123C249.527 341.994 265.023 341.994 280.736 339.956C296.449 337.919 311.413 333.952 325.481 328.324L234.502 340.123Z" fill="#1F4495"/>
<path d="M438.849 182.981C439.125 181.019 439.351 179.047 439.558 177.06L85.5748 222.966C86.2823 224.834 87.004 226.683 87.7727 228.51L438.849 182.981Z" fill="#1F4495"/>
<path d="M440.498 159.997C440.514 158.068 440.51 156.126 440.456 154.173L78.8286 201.07C79.2749 202.972 79.768 204.851 80.2753 206.712L440.466 160.001L440.498 159.997Z" fill="#1F4495"/>
<path d="M425.792 230.165C426.657 228.126 427.503 226.073 428.312 223.992L108.433 265.475C109.729 267.266 111.072 269.035 112.447 270.8L425.792 230.165Z" fill="#1F4495"/>
<path d="M434.092 206.335C434.63 204.338 435.149 202.328 435.618 200.307L95.2891 244.442C96.258 246.276 97.2739 248.088 98.304 249.881L434.092 206.335Z" fill="#1F4495"/>
</svg>
