<svg width="435" height="215" viewBox="0 0 435 215" fill="none" xmlns="http://www.w3.org/2000/svg">
<circle cx="14.4088" cy="9.77278" r="9.77278" fill="#1F4495"/>
<circle cx="73.0448" cy="9.77278" r="9.77278" fill="#1F4495"/>
<circle cx="14.4088" cy="58.6375" r="9.77278" fill="#1F4495"/>
<circle cx="73.0448" cy="58.6375" r="9.77278" fill="#1F4495"/>
<circle cx="131.684" cy="9.77278" r="9.77278" fill="#1F4495"/>
<circle cx="190.321" cy="9.77278" r="9.77278" fill="#1F4495"/>
<circle cx="248.957" cy="9.77278" r="9.77278" fill="#1F4495"/>
<circle cx="131.684" cy="58.6375" r="9.77278" fill="#1F4495"/>
<circle cx="190.321" cy="58.6375" r="9.77278" fill="#1F4495"/>
<circle cx="248.957" cy="58.6375" r="9.77278" fill="#1F4495"/>
<circle cx="14.4088" cy="107.5" r="9.77278" fill="#1F4495"/>
<circle cx="73.0448" cy="107.5" r="9.77278" fill="#1F4495"/>
<circle cx="14.4088" cy="156.365" r="9.77278" fill="#1F4495"/>
<circle cx="73.0448" cy="156.365" r="9.77278" fill="#1F4495"/>
<circle cx="131.684" cy="107.5" r="9.77278" fill="#1F4495"/>
<circle cx="190.321" cy="107.5" r="9.77278" fill="#1F4495"/>
<circle cx="248.957" cy="107.5" r="9.77278" fill="#1F4495"/>
<circle cx="131.684" cy="156.365" r="9.77278" fill="#1F4495"/>
<circle cx="190.321" cy="156.365" r="9.77278" fill="#1F4495"/>
<circle cx="248.957" cy="156.365" r="9.77278" fill="#1F4495"/>
<circle cx="307.593" cy="9.77278" r="9.77278" fill="#1F4495"/>
<circle cx="366.228" cy="9.77278" r="9.77278" fill="#1F4495"/>
<circle cx="424.867" cy="9.77278" r="9.77278" fill="#1F4495"/>
<circle cx="307.593" cy="58.6375" r="9.77278" fill="#1F4495"/>
<circle cx="366.228" cy="58.6375" r="9.77278" fill="#1F4495"/>
<circle cx="424.867" cy="58.6375" r="9.77278" fill="#1F4495"/>
<circle cx="307.593" cy="107.5" r="9.77278" fill="#1F4495"/>
<circle cx="366.228" cy="107.5" r="9.77278" fill="#1F4495"/>
<circle cx="424.867" cy="107.5" r="9.77278" fill="#1F4495"/>
<circle cx="307.593" cy="156.365" r="9.77278" fill="#1F4495"/>
<circle cx="366.228" cy="156.365" r="9.77278" fill="#1F4495"/>
<circle cx="424.867" cy="156.365" r="9.77278" fill="#1F4495"/>
<circle cx="14.4088" cy="205.227" r="9.77278" fill="#1F4495"/>
<circle cx="73.0448" cy="205.227" r="9.77278" fill="#1F4495"/>
<circle cx="131.684" cy="205.227" r="9.77278" fill="#1F4495"/>
<circle cx="190.321" cy="205.227" r="9.77278" fill="#1F4495"/>
<circle cx="248.957" cy="205.227" r="9.77278" fill="#1F4495"/>
<circle cx="307.593" cy="205.227" r="9.77278" fill="#1F4495"/>
<circle cx="366.228" cy="205.227" r="9.77278" fill="#1F4495"/>
<circle cx="424.867" cy="205.227" r="9.77278" fill="#1F4495"/>
</svg>
