<svg width="172" height="451" viewBox="0 0 172 451" fill="none" xmlns="http://www.w3.org/2000/svg">
<path d="M374.885 322.815C373.855 324.416 372.788 325.98 371.715 327.523L56.2296 167.041C56.8451 165.265 57.482 163.482 58.1694 161.707L374.914 322.83L374.885 322.815Z" fill="#1F4495"/>
<path d="M326.703 372.302C324.928 373.525 323.118 374.711 321.279 375.882L46.825 236.272C46.6966 234.118 46.5898 231.956 46.5261 229.781L326.703 372.302Z" fill="#1F4495"/>
<path d="M361.593 340.725C360.333 342.209 359.066 343.672 357.764 345.099L50.2619 188.677C50.6486 186.785 51.0855 184.9 51.5439 183.008L361.593 340.725Z" fill="#1F4495"/>
<path d="M345.632 357.26C344.144 358.628 342.62 359.959 341.089 361.269L46.9769 211.66C47.1346 209.651 47.314 207.635 47.5436 205.627L345.632 357.26Z" fill="#1F4495"/>
<path d="M304.141 385.497C302.001 386.552 299.819 387.549 297.651 388.517L50.4935 262.792C49.9931 260.449 49.5214 258.12 49.1144 255.77L304.141 385.497Z" fill="#1F4495"/>
<path d="M384.492 306.2C384.07 307.03 383.626 307.866 383.183 308.703L64.6928 146.693C65.108 145.841 65.5016 144.997 65.9454 144.16C66.3676 143.331 66.8114 142.494 67.2552 141.657L385.745 303.668C385.33 304.519 384.936 305.363 384.492 306.2Z" fill="#1F4495"/>
<path d="M276.801 396.261C274.124 397.061 271.456 397.81 268.737 398.48L59.4629 292.026C58.426 289.427 57.4391 286.837 56.51 284.203L276.772 396.246L276.801 396.261Z" fill="#1F4495"/>
<path d="M71.6024 316.552L241.792 403.124C238.106 403.464 234.436 403.705 230.724 403.815L77.5595 325.903C75.4633 322.838 73.4967 319.73 71.6024 316.552Z" fill="#1F4495"/>
<path d="M399.915 187.555C400.416 189.898 400.888 192.227 401.295 194.577L146.268 64.8493C148.408 63.7947 150.59 62.7977 152.758 61.8294L399.915 187.555Z" fill="#1F4495"/>
<path d="M186.575 399.688C172.168 396.502 157.939 391.443 144.176 384.442C130.413 377.441 117.968 368.913 106.888 359.153L186.575 399.688Z" fill="#1F4495"/>
<path d="M400.197 261.677C399.81 263.569 399.374 265.454 398.915 267.346L88.8663 109.629C90.1259 108.145 91.3924 106.682 92.6946 105.255L400.197 261.677Z" fill="#1F4495"/>
<path d="M394.208 283.32C393.593 285.096 392.956 286.878 392.268 288.654L75.5241 127.531C76.5547 125.93 77.621 124.366 78.6943 122.823L394.18 283.305L394.208 283.32Z" fill="#1F4495"/>
<path d="M403.612 214.089C403.741 216.243 403.847 218.404 403.911 220.58L123.734 78.0584C125.508 76.8361 127.319 75.65 129.158 74.4784L403.612 214.089Z" fill="#1F4495"/>
<path d="M403.453 238.68C403.296 240.689 403.116 242.704 402.887 244.713L104.798 93.0798C106.286 91.712 107.811 90.3802 109.342 89.0701L403.453 238.68Z" fill="#1F4495"/>
</svg>
