<svg width="59" height="59" viewBox="0 0 59 59" fill="none" xmlns="http://www.w3.org/2000/svg">
<path d="M13.0557 56.3834C9.56856 54.2509 8.46794 49.6834 10.601 46.1966L35.7599 5.07018C37.893 1.58338 42.4611 0.4826 45.9482 2.61511C49.4353 4.74763 50.536 9.31509 48.4029 12.8019L23.244 53.9283C21.1109 57.4151 16.5428 58.5159 13.0557 56.3834Z" fill="#98CCED"/>
<path d="M46.2003 48.3965L5.07005 23.2438C1.58293 21.1113 0.482305 16.5438 2.61535 13.057C4.74839 9.57022 9.3165 8.46945 12.8036 10.602L53.9338 35.7547C57.421 37.8872 58.5216 42.4546 56.3885 45.9415C54.2555 49.4283 49.6874 50.529 46.2003 48.3965Z" fill="#98CCED"/>
</svg>
