<svg width="347" height="416" viewBox="0 0 347 416" fill="none" xmlns="http://www.w3.org/2000/svg">
<path d="M435.392 115.169C434.946 113.267 434.453 111.388 433.945 109.527L73.7553 156.238C73.7399 158.166 73.7429 160.109 73.7971 162.062L435.425 115.165L435.392 115.169Z" fill="#1F4495"/>
<path d="M405.82 50.7607C404.525 48.9689 403.182 47.1998 401.807 45.435L88.4619 86.0707C87.5972 88.1094 86.7509 90.1624 85.9416 92.2437L405.82 50.7607Z" fill="#1F4495"/>
<path d="M428.698 93.2834C427.99 91.4154 427.269 89.5657 426.5 87.7389L75.424 133.268C75.1473 135.23 74.9218 137.203 74.7147 139.189L428.698 93.2834Z" fill="#1F4495"/>
<path d="M418.951 71.8112C417.982 69.9771 416.966 68.1657 415.936 66.3727L80.1485 109.919C79.6105 111.915 79.091 113.926 78.6226 115.946L418.951 71.8112Z" fill="#1F4495"/>
<path d="M388.541 30.2472C386.835 28.492 385.068 26.778 383.305 25.0967L101.125 61.6908C99.8353 63.7846 98.5786 65.8741 97.3772 68.0063L388.541 30.2472Z" fill="#1F4495"/>
<path d="M438.97 134.536C438.847 133.588 438.705 132.627 438.564 131.665L74.9436 178.821C75.0524 179.787 75.1428 180.738 75.2842 181.7C75.4072 182.647 75.5487 183.609 75.6902 184.57L439.31 137.415C439.202 136.449 439.111 135.497 438.97 134.536Z" fill="#1F4495"/>
<path d="M365.807 10.4426C363.495 8.74953 361.172 7.10753 358.774 5.52514L119.845 36.5101C117.949 38.6659 116.105 40.8317 114.301 43.0586L365.774 10.4469L365.807 10.4426Z" fill="#1F4495"/>
<path d="M140.012 16.9702L334.318 -8.2279C330.872 -9.82384 327.406 -11.3176 323.855 -12.7006L148.986 9.97689C145.906 12.2199 142.937 14.5482 140.012 16.9702Z" fill="#1F4495"/>
<path d="M394.376 279.729C396.272 277.573 398.116 275.407 399.92 273.181L148.447 305.793C150.759 307.486 153.082 309.127 155.48 310.71L394.408 279.725L394.376 279.729Z" fill="#1F4495"/>
<path d="M413.096 254.548C414.385 252.455 415.642 250.365 416.843 248.233L125.679 285.992C127.385 287.747 129.153 289.461 130.916 291.142L413.096 254.548Z" fill="#1F4495"/>
<path d="M279.751 -23.8875C264.726 -25.7589 249.23 -25.759 233.517 -23.7213C217.804 -21.6836 202.84 -17.7168 188.772 -12.0891L279.751 -23.8875Z" fill="#1F4495"/>
<path d="M365.267 306.257C368.348 304.014 371.317 301.686 374.241 299.264L179.936 324.462C183.382 326.058 186.848 327.552 190.399 328.935L365.267 306.257Z" fill="#1F4495"/>
<path d="M234.503 340.123C249.527 341.994 265.023 341.994 280.736 339.956C296.449 337.919 311.414 333.952 325.481 328.324L234.503 340.123Z" fill="#1F4495"/>
<path d="M438.849 182.981C439.125 181.019 439.351 179.047 439.558 177.06L85.5748 222.966C86.2823 224.834 87.004 226.683 87.7727 228.51L438.849 182.981Z" fill="#1F4495"/>
<path d="M440.499 159.997C440.514 158.068 440.511 156.126 440.457 154.173L78.8291 201.07C79.2754 202.972 79.7685 204.851 80.2758 206.712L440.466 160.001L440.499 159.997Z" fill="#1F4495"/>
<path d="M425.792 230.165C426.657 228.126 427.503 226.073 428.312 223.992L108.433 265.475C109.729 267.266 111.072 269.035 112.447 270.8L425.792 230.165Z" fill="#1F4495"/>
<path d="M434.092 206.335C434.63 204.338 435.15 202.328 435.618 200.307L95.2896 244.442C96.2585 246.276 97.2744 248.088 98.3045 249.881L434.092 206.335Z" fill="#1F4495"/>
</svg>
