<svg width="90" height="164" viewBox="0 0 90 164" fill="none" xmlns="http://www.w3.org/2000/svg">
<path d="M59.1434 18.0731C58.4678 17.5222 57.7817 16.9922 57.0956 16.4726L-57.5142 131.065C-56.9945 131.751 -56.4645 132.437 -55.9135 133.113L59.1538 18.0627L59.1434 18.0731Z" fill="#98CCED"/>
<path d="M31.1509 3.35696C30.205 3.07635 29.2487 2.81651 28.282 2.56709L-71.4221 102.256C-71.1726 103.212 -70.9128 104.168 -70.6321 105.125L31.1509 3.35696Z" fill="#98CCED"/>
<path d="M50.8174 12.1593C50.0586 11.6916 49.2997 11.2343 48.5305 10.7978L-63.1794 122.491C-62.7428 123.26 -62.2854 124.019 -61.8176 124.777L50.8174 12.1593Z" fill="#98CCED"/>
<path d="M41.5247 7.22292C40.6827 6.83838 39.8304 6.47462 38.9781 6.12127L-67.8672 112.95C-67.5138 113.803 -67.1499 114.655 -66.7653 115.497L41.5247 7.22292Z" fill="#98CCED"/>
<path d="M19.4571 0.810326C18.3761 0.654434 17.2846 0.529709 16.2036 0.41539L-73.5842 90.1896C-73.4699 91.2809 -73.3452 92.3618 -73.1892 93.4426L19.4571 0.810326Z" fill="#98CCED"/>
<path d="M65.6815 23.9453C65.38 23.6439 65.0683 23.3425 64.7565 23.0411L-50.945 138.725C-50.6435 139.037 -50.3525 139.349 -50.0407 139.65C-49.7392 139.951 -49.4274 140.253 -49.1155 140.554L66.5858 24.8702C66.2843 24.5584 65.9933 24.2467 65.6815 23.9453Z" fill="#98CCED"/>
<path d="M6.0275 -0.000114441C4.74898 0.0310593 3.48079 0.0830688 2.20227 0.176605L-73.8232 76.1905C-73.9064 77.4689 -73.9688 78.7368 -74 80.0151L6.0171 0.0102844L6.0275 -0.000114441Z" fill="#98CCED"/>
<path d="M89.4537 87.4149C89.5369 86.1366 89.5993 84.8686 89.6305 83.5903L9.6135 163.595C10.892 163.564 12.1601 163.512 13.4386 163.418L89.4641 87.4045L89.4537 87.4149Z" fill="#98CCED"/>
<path d="M89.2147 73.4157C89.1004 72.3244 88.9756 71.2436 88.8197 70.1627L-3.82664 162.795C-2.74561 162.951 -1.65418 163.076 -0.573151 163.19L89.2147 73.4157Z" fill="#98CCED"/>
<path d="M86.3874 104.719C86.8655 103.087 87.2813 101.456 87.6555 99.8033L25.8289 161.62C27.4816 161.246 29.1136 160.831 30.7455 160.353L86.3874 104.719Z" fill="#98CCED"/>
<path d="M49.3829 152.298C55.2039 148.868 60.6817 144.649 65.6815 139.65C70.6812 134.651 74.8911 129.174 78.3316 123.354L49.3829 152.298Z" fill="#98CCED"/>
<path d="M78.8305 41.1039C78.394 40.3348 77.9367 39.5762 77.4689 38.8175L-35.1661 151.435C-34.4073 151.903 -33.6485 152.36 -32.8793 152.797L78.8305 41.1039Z" fill="#98CCED"/>
<path d="M73.1552 32.5296C72.6354 31.8436 72.1053 31.1577 71.5544 30.4822L-43.5129 145.532C-42.8373 146.083 -42.1512 146.613 -41.4652 147.133L73.1447 32.54L73.1552 32.5296Z" fill="#98CCED"/>
<path d="M87.0631 61.339C86.8137 60.3828 86.5538 59.4267 86.2731 58.4705L-15.51 160.238C-14.5641 160.519 -13.6078 160.779 -12.6411 161.028L87.0631 61.339Z" fill="#98CCED"/>
<path d="M83.5082 50.6548C83.1547 49.8026 82.791 48.9504 82.4064 48.1086L-25.8837 156.382C-25.0418 156.767 -24.1893 157.131 -23.337 157.484L83.5082 50.6548Z" fill="#98CCED"/>
</svg>
