<svg width="45" height="45" viewBox="0 0 45 45" fill="none" xmlns="http://www.w3.org/2000/svg">
<path d="M0.318451 6.52237C-0.792529 2.72925 2.72917 -0.792444 6.52229 0.318537L21.092 4.58592C22.0097 4.8547 22.9852 4.8547 23.9029 4.58592L38.4727 0.318536C42.2658 -0.792444 45.7875 2.72925 44.6765 6.52237L40.4091 21.0921C40.1403 22.0098 40.1403 22.9853 40.4091 23.903L44.6765 38.4727C45.7875 42.2659 42.2658 45.7876 38.4727 44.6766L23.9029 40.4092C22.9852 40.1404 22.0097 40.1404 21.092 40.4092L6.52229 44.6766C2.72917 45.7876 -0.792528 42.2659 0.318452 38.4727L4.58583 23.903C4.85462 22.9853 4.85462 22.0098 4.58583 21.0921L0.318451 6.52237Z" fill="#1F4495"/>
</svg>
