<svg width="60" height="60" viewBox="0 0 60 60" fill="none" xmlns="http://www.w3.org/2000/svg">
<path d="M25.6132 3.0209C27.5098 -0.446823 32.4902 -0.446822 34.3868 3.0209L41.6717 16.3408C42.1305 17.1797 42.8203 17.8695 43.6592 18.3283L56.9791 25.6132C60.4468 27.5098 60.4468 32.4902 56.9791 34.3868L43.6592 41.6717C42.8203 42.1305 42.1305 42.8203 41.6717 43.6592L34.3868 56.9791C32.4902 60.4468 27.5098 60.4468 25.6132 56.9791L18.3283 43.6592C17.8695 42.8203 17.1797 42.1305 16.3408 41.6717L3.0209 34.3868C-0.446823 32.4902 -0.446822 27.5098 3.0209 25.6132L16.3408 18.3283C17.1797 17.8695 17.8695 17.1797 18.3283 16.3408L25.6132 3.0209Z" fill="#1A74E4"/>
</svg>
