<svg width="282" height="564" viewBox="0 0 282 564" fill="none" xmlns="http://www.w3.org/2000/svg">
<path d="M-0.23822 563.446C-38.2544 563.446 -75.1616 555.994 -109.932 541.286C-143.488 527.091 -173.619 506.789 -199.477 480.927C-225.335 455.065 -245.647 424.947 -259.844 391.397C-274.547 356.631 -282 319.73 -282 281.719C-282 243.709 -274.547 206.807 -259.836 172.042C-245.639 138.491 -225.335 108.365 -199.468 82.5108C-173.611 56.6569 -143.48 36.3472 -109.924 22.1524C-75.1534 7.45207 -38.2544 0 -0.23822 0C37.778 0 74.6852 7.45207 109.456 22.1605C143.012 36.3553 173.142 56.6569 199 82.519C224.858 108.373 245.171 138.499 259.368 172.05C274.07 206.815 281.532 243.717 281.532 281.727C281.532 319.738 274.079 356.639 259.368 391.405C245.171 424.955 224.866 455.082 199 480.936C173.142 506.789 143.012 527.099 109.456 541.294C74.6852 555.994 37.778 563.455 -0.23822 563.455V563.446ZM-0.23822 97.839C-101.647 97.839 -184.146 180.325 -184.146 281.719C-184.146 383.113 -101.647 465.599 -0.23822 465.599C101.171 465.599 183.67 383.113 183.67 281.719C183.67 180.325 101.171 97.839 -0.23822 97.839Z" fill="#A9D9F0"/>
</svg>
